<?xml version="1.0" encoding="utf-8"?>
<svg xmlns="http://www.w3.org/2000/svg" xmlns:xlink="http://www.w3.org/1999/xlink" width="600" height="400" viewBox="0 0 2400 1600">
<defs>
  <clipPath id="clip110">
    <rect x="0" y="0" width="2400" height="1600"/>
  </clipPath>
</defs>
<path clip-path="url(#clip110)" d="M0 1600 L2400 1600 L2400 0 L0 0  Z" fill="#ffffff" fill-rule="evenodd" fill-opacity="1"/>
<defs>
  <clipPath id="clip111">
    <rect x="480" y="0" width="1681" height="1600"/>
  </clipPath>
</defs>
<path clip-path="url(#clip110)" d="M219.033 1423.18 L1744.42 1423.18 L1744.42 47.2441 L219.033 47.2441  Z" fill="#ffffff" fill-rule="evenodd" fill-opacity="1"/>
<defs>
  <clipPath id="clip112">
    <rect x="219" y="47" width="1526" height="1377"/>
  </clipPath>
</defs>
<polyline clip-path="url(#clip112)" style="stroke:#000000; stroke-linecap:round; stroke-linejoin:round; stroke-width:2; stroke-opacity:0.1; fill:none" points="262.204,1423.18 262.204,47.2441 "/>
<polyline clip-path="url(#clip112)" style="stroke:#000000; stroke-linecap:round; stroke-linejoin:round; stroke-width:2; stroke-opacity:0.1; fill:none" points="581.992,1423.18 581.992,47.2441 "/>
<polyline clip-path="url(#clip112)" style="stroke:#000000; stroke-linecap:round; stroke-linejoin:round; stroke-width:2; stroke-opacity:0.1; fill:none" points="901.779,1423.18 901.779,47.2441 "/>
<polyline clip-path="url(#clip112)" style="stroke:#000000; stroke-linecap:round; stroke-linejoin:round; stroke-width:2; stroke-opacity:0.1; fill:none" points="1221.57,1423.18 1221.57,47.2441 "/>
<polyline clip-path="url(#clip112)" style="stroke:#000000; stroke-linecap:round; stroke-linejoin:round; stroke-width:2; stroke-opacity:0.1; fill:none" points="1541.35,1423.18 1541.35,47.2441 "/>
<polyline clip-path="url(#clip110)" style="stroke:#000000; stroke-linecap:round; stroke-linejoin:round; stroke-width:4; stroke-opacity:1; fill:none" points="219.033,1423.18 1744.42,1423.18 "/>
<polyline clip-path="url(#clip110)" style="stroke:#000000; stroke-linecap:round; stroke-linejoin:round; stroke-width:4; stroke-opacity:1; fill:none" points="262.204,1423.18 262.204,1404.28 "/>
<polyline clip-path="url(#clip110)" style="stroke:#000000; stroke-linecap:round; stroke-linejoin:round; stroke-width:4; stroke-opacity:1; fill:none" points="581.992,1423.18 581.992,1404.28 "/>
<polyline clip-path="url(#clip110)" style="stroke:#000000; stroke-linecap:round; stroke-linejoin:round; stroke-width:4; stroke-opacity:1; fill:none" points="901.779,1423.18 901.779,1404.28 "/>
<polyline clip-path="url(#clip110)" style="stroke:#000000; stroke-linecap:round; stroke-linejoin:round; stroke-width:4; stroke-opacity:1; fill:none" points="1221.57,1423.18 1221.57,1404.28 "/>
<polyline clip-path="url(#clip110)" style="stroke:#000000; stroke-linecap:round; stroke-linejoin:round; stroke-width:4; stroke-opacity:1; fill:none" points="1541.35,1423.18 1541.35,1404.28 "/>
<path clip-path="url(#clip110)" d="M262.204 1454.1 Q258.593 1454.1 256.764 1457.66 Q254.959 1461.2 254.959 1468.33 Q254.959 1475.44 256.764 1479.01 Q258.593 1482.55 262.204 1482.55 Q265.838 1482.55 267.644 1479.01 Q269.473 1475.44 269.473 1468.33 Q269.473 1461.2 267.644 1457.66 Q265.838 1454.1 262.204 1454.1 M262.204 1450.39 Q268.014 1450.39 271.07 1455 Q274.149 1459.58 274.149 1468.33 Q274.149 1477.06 271.07 1481.67 Q268.014 1486.25 262.204 1486.25 Q256.394 1486.25 253.315 1481.67 Q250.26 1477.06 250.26 1468.33 Q250.26 1459.58 253.315 1455 Q256.394 1450.39 262.204 1450.39 Z" fill="#000000" fill-rule="nonzero" fill-opacity="1" /><path clip-path="url(#clip110)" d="M556.679 1481.64 L564.318 1481.64 L564.318 1455.28 L556.008 1456.95 L556.008 1452.69 L564.272 1451.02 L568.948 1451.02 L568.948 1481.64 L576.587 1481.64 L576.587 1485.58 L556.679 1485.58 L556.679 1481.64 Z" fill="#000000" fill-rule="nonzero" fill-opacity="1" /><path clip-path="url(#clip110)" d="M596.031 1454.1 Q592.42 1454.1 590.591 1457.66 Q588.786 1461.2 588.786 1468.33 Q588.786 1475.44 590.591 1479.01 Q592.42 1482.55 596.031 1482.55 Q599.665 1482.55 601.471 1479.01 Q603.299 1475.44 603.299 1468.33 Q603.299 1461.2 601.471 1457.66 Q599.665 1454.1 596.031 1454.1 M596.031 1450.39 Q601.841 1450.39 604.897 1455 Q607.975 1459.58 607.975 1468.33 Q607.975 1477.06 604.897 1481.67 Q601.841 1486.25 596.031 1486.25 Q590.221 1486.25 587.142 1481.67 Q584.086 1477.06 584.086 1468.33 Q584.086 1459.58 587.142 1455 Q590.221 1450.39 596.031 1450.39 Z" fill="#000000" fill-rule="nonzero" fill-opacity="1" /><path clip-path="url(#clip110)" d="M880.552 1481.64 L896.872 1481.64 L896.872 1485.58 L874.927 1485.58 L874.927 1481.64 Q877.589 1478.89 882.173 1474.26 Q886.779 1469.61 887.96 1468.27 Q890.205 1465.74 891.085 1464.01 Q891.987 1462.25 891.987 1460.56 Q891.987 1457.8 890.043 1456.07 Q888.122 1454.33 885.02 1454.33 Q882.821 1454.33 880.367 1455.09 Q877.936 1455.86 875.159 1457.41 L875.159 1452.69 Q877.983 1451.55 880.436 1450.97 Q882.89 1450.39 884.927 1450.39 Q890.298 1450.39 893.492 1453.08 Q896.686 1455.77 896.686 1460.26 Q896.686 1462.39 895.876 1464.31 Q895.089 1466.2 892.983 1468.8 Q892.404 1469.47 889.302 1472.69 Q886.2 1475.88 880.552 1481.64 Z" fill="#000000" fill-rule="nonzero" fill-opacity="1" /><path clip-path="url(#clip110)" d="M916.686 1454.1 Q913.075 1454.1 911.246 1457.66 Q909.441 1461.2 909.441 1468.33 Q909.441 1475.44 911.246 1479.01 Q913.075 1482.55 916.686 1482.55 Q920.321 1482.55 922.126 1479.01 Q923.955 1475.44 923.955 1468.33 Q923.955 1461.2 922.126 1457.66 Q920.321 1454.1 916.686 1454.1 M916.686 1450.39 Q922.496 1450.39 925.552 1455 Q928.631 1459.58 928.631 1468.33 Q928.631 1477.06 925.552 1481.67 Q922.496 1486.25 916.686 1486.25 Q910.876 1486.25 907.797 1481.67 Q904.742 1477.06 904.742 1468.33 Q904.742 1459.58 907.797 1455 Q910.876 1450.39 916.686 1450.39 Z" fill="#000000" fill-rule="nonzero" fill-opacity="1" /><path clip-path="url(#clip110)" d="M1210.41 1466.95 Q1213.77 1467.66 1215.64 1469.93 Q1217.54 1472.2 1217.54 1475.53 Q1217.54 1480.65 1214.02 1483.45 Q1210.5 1486.25 1204.02 1486.25 Q1201.84 1486.25 1199.53 1485.81 Q1197.24 1485.39 1194.78 1484.54 L1194.78 1480.02 Q1196.73 1481.16 1199.04 1481.74 Q1201.36 1482.32 1203.88 1482.32 Q1208.28 1482.32 1210.57 1480.58 Q1212.89 1478.84 1212.89 1475.53 Q1212.89 1472.48 1210.73 1470.77 Q1208.6 1469.03 1204.78 1469.03 L1200.76 1469.03 L1200.76 1465.19 L1204.97 1465.19 Q1208.42 1465.19 1210.25 1463.82 Q1212.08 1462.43 1212.08 1459.84 Q1212.08 1457.18 1210.18 1455.77 Q1208.3 1454.33 1204.78 1454.33 Q1202.86 1454.33 1200.66 1454.75 Q1198.46 1455.16 1195.83 1456.04 L1195.83 1451.88 Q1198.49 1451.14 1200.8 1450.77 Q1203.14 1450.39 1205.2 1450.39 Q1210.52 1450.39 1213.63 1452.83 Q1216.73 1455.23 1216.73 1459.35 Q1216.73 1462.22 1215.08 1464.21 Q1213.44 1466.18 1210.41 1466.95 Z" fill="#000000" fill-rule="nonzero" fill-opacity="1" /><path clip-path="url(#clip110)" d="M1236.4 1454.1 Q1232.79 1454.1 1230.96 1457.66 Q1229.16 1461.2 1229.16 1468.33 Q1229.16 1475.44 1230.96 1479.01 Q1232.79 1482.55 1236.4 1482.55 Q1240.04 1482.55 1241.84 1479.01 Q1243.67 1475.44 1243.67 1468.33 Q1243.67 1461.2 1241.84 1457.66 Q1240.04 1454.1 1236.4 1454.1 M1236.4 1450.39 Q1242.21 1450.39 1245.27 1455 Q1248.35 1459.58 1248.35 1468.33 Q1248.35 1477.06 1245.27 1481.67 Q1242.21 1486.25 1236.4 1486.25 Q1230.59 1486.25 1227.52 1481.67 Q1224.46 1477.06 1224.46 1468.33 Q1224.46 1459.58 1227.52 1455 Q1230.59 1450.39 1236.4 1450.39 Z" fill="#000000" fill-rule="nonzero" fill-opacity="1" /><path clip-path="url(#clip110)" d="M1529.53 1455.09 L1517.72 1473.54 L1529.53 1473.54 L1529.53 1455.09 M1528.3 1451.02 L1534.18 1451.02 L1534.18 1473.54 L1539.11 1473.54 L1539.11 1477.43 L1534.18 1477.43 L1534.18 1485.58 L1529.53 1485.58 L1529.53 1477.43 L1513.92 1477.43 L1513.92 1472.92 L1528.3 1451.02 Z" fill="#000000" fill-rule="nonzero" fill-opacity="1" /><path clip-path="url(#clip110)" d="M1556.84 1454.1 Q1553.23 1454.1 1551.4 1457.66 Q1549.59 1461.2 1549.59 1468.33 Q1549.59 1475.44 1551.4 1479.01 Q1553.23 1482.55 1556.84 1482.55 Q1560.47 1482.55 1562.28 1479.01 Q1564.11 1475.44 1564.11 1468.33 Q1564.11 1461.2 1562.28 1457.66 Q1560.47 1454.1 1556.84 1454.1 M1556.84 1450.39 Q1562.65 1450.39 1565.71 1455 Q1568.78 1459.58 1568.78 1468.33 Q1568.78 1477.06 1565.71 1481.67 Q1562.65 1486.25 1556.84 1486.25 Q1551.03 1486.25 1547.95 1481.67 Q1544.9 1477.06 1544.9 1468.33 Q1544.9 1459.58 1547.95 1455 Q1551.03 1450.39 1556.84 1450.39 Z" fill="#000000" fill-rule="nonzero" fill-opacity="1" /><path clip-path="url(#clip110)" d="M563.34 1520.52 L569.769 1520.52 L569.769 1568.04 L563.34 1568.04 L563.34 1520.52 Z" fill="#000000" fill-rule="nonzero" fill-opacity="1" /><path clip-path="url(#clip110)" d="M611.942 1546.53 L611.942 1568.04 L606.085 1568.04 L606.085 1546.72 Q606.085 1541.66 604.112 1539.14 Q602.139 1536.63 598.192 1536.63 Q593.45 1536.63 590.712 1539.65 Q587.975 1542.68 587.975 1547.9 L587.975 1568.04 L582.087 1568.04 L582.087 1532.4 L587.975 1532.4 L587.975 1537.93 Q590.076 1534.72 592.908 1533.13 Q595.773 1531.54 599.497 1531.54 Q605.64 1531.54 608.791 1535.36 Q611.942 1539.14 611.942 1546.53 Z" fill="#000000" fill-rule="nonzero" fill-opacity="1" /><path clip-path="url(#clip110)" d="M649.277 1533.76 L649.277 1539.24 Q646.794 1537.87 644.28 1537.2 Q641.797 1536.5 639.251 1536.5 Q633.553 1536.5 630.402 1540.13 Q627.251 1543.73 627.251 1550.25 Q627.251 1556.78 630.402 1560.4 Q633.553 1564 639.251 1564 Q641.797 1564 644.28 1563.33 Q646.794 1562.63 649.277 1561.26 L649.277 1566.68 Q646.826 1567.82 644.184 1568.39 Q641.574 1568.97 638.614 1568.97 Q630.562 1568.97 625.819 1563.91 Q621.077 1558.85 621.077 1550.25 Q621.077 1541.53 625.851 1536.53 Q630.657 1531.54 638.996 1531.54 Q641.702 1531.54 644.28 1532.11 Q646.858 1532.65 649.277 1533.76 Z" fill="#000000" fill-rule="nonzero" fill-opacity="1" /><path clip-path="url(#clip110)" d="M659.462 1532.4 L665.318 1532.4 L665.318 1568.04 L659.462 1568.04 L659.462 1532.4 M659.462 1518.52 L665.318 1518.52 L665.318 1525.93 L659.462 1525.93 L659.462 1518.52 Z" fill="#000000" fill-rule="nonzero" fill-opacity="1" /><path clip-path="url(#clip110)" d="M701.03 1537.81 L701.03 1518.52 L706.886 1518.52 L706.886 1568.04 L701.03 1568.04 L701.03 1562.7 Q699.184 1565.88 696.351 1567.44 Q693.55 1568.97 689.604 1568.97 Q683.142 1568.97 679.068 1563.81 Q675.026 1558.65 675.026 1550.25 Q675.026 1541.85 679.068 1536.69 Q683.142 1531.54 689.604 1531.54 Q693.55 1531.54 696.351 1533.1 Q699.184 1534.62 701.03 1537.81 M681.073 1550.25 Q681.073 1556.71 683.715 1560.4 Q686.389 1564.07 691.036 1564.07 Q695.683 1564.07 698.356 1560.4 Q701.03 1556.71 701.03 1550.25 Q701.03 1543.79 698.356 1540.13 Q695.683 1536.44 691.036 1536.44 Q686.389 1536.44 683.715 1540.13 Q681.073 1543.79 681.073 1550.25 Z" fill="#000000" fill-rule="nonzero" fill-opacity="1" /><path clip-path="url(#clip110)" d="M749.441 1548.76 L749.441 1551.62 L722.514 1551.62 Q722.896 1557.67 726.143 1560.85 Q729.421 1564 735.246 1564 Q738.619 1564 741.77 1563.17 Q744.953 1562.35 748.073 1560.69 L748.073 1566.23 Q744.922 1567.57 741.611 1568.27 Q738.301 1568.97 734.896 1568.97 Q726.365 1568.97 721.368 1564 Q716.403 1559.04 716.403 1550.57 Q716.403 1541.82 721.114 1536.69 Q725.856 1531.54 733.877 1531.54 Q741.07 1531.54 745.24 1536.18 Q749.441 1540.8 749.441 1548.76 M743.585 1547.04 Q743.521 1542.23 740.879 1539.37 Q738.269 1536.5 733.941 1536.5 Q729.039 1536.5 726.079 1539.27 Q723.151 1542.04 722.705 1547.07 L743.585 1547.04 Z" fill="#000000" fill-rule="nonzero" fill-opacity="1" /><path clip-path="url(#clip110)" d="M788.686 1546.53 L788.686 1568.04 L782.829 1568.04 L782.829 1546.72 Q782.829 1541.66 780.856 1539.14 Q778.883 1536.63 774.936 1536.63 Q770.193 1536.63 767.456 1539.65 Q764.719 1542.68 764.719 1547.9 L764.719 1568.04 L758.831 1568.04 L758.831 1532.4 L764.719 1532.4 L764.719 1537.93 Q766.82 1534.72 769.652 1533.13 Q772.517 1531.54 776.241 1531.54 Q782.384 1531.54 785.535 1535.36 Q788.686 1539.14 788.686 1546.53 Z" fill="#000000" fill-rule="nonzero" fill-opacity="1" /><path clip-path="url(#clip110)" d="M826.021 1533.76 L826.021 1539.24 Q823.538 1537.87 821.024 1537.2 Q818.541 1536.5 815.995 1536.5 Q810.297 1536.5 807.146 1540.13 Q803.995 1543.73 803.995 1550.25 Q803.995 1556.78 807.146 1560.4 Q810.297 1564 815.995 1564 Q818.541 1564 821.024 1563.33 Q823.538 1562.63 826.021 1561.26 L826.021 1566.68 Q823.57 1567.82 820.928 1568.39 Q818.318 1568.97 815.358 1568.97 Q807.305 1568.97 802.563 1563.91 Q797.821 1558.85 797.821 1550.25 Q797.821 1541.53 802.595 1536.53 Q807.401 1531.54 815.74 1531.54 Q818.445 1531.54 821.024 1532.11 Q823.602 1532.65 826.021 1533.76 Z" fill="#000000" fill-rule="nonzero" fill-opacity="1" /><path clip-path="url(#clip110)" d="M866.697 1548.76 L866.697 1551.62 L839.771 1551.62 Q840.152 1557.67 843.399 1560.85 Q846.677 1564 852.502 1564 Q855.876 1564 859.027 1563.17 Q862.21 1562.35 865.329 1560.69 L865.329 1566.23 Q862.178 1567.57 858.868 1568.27 Q855.557 1568.97 852.152 1568.97 Q843.622 1568.97 838.625 1564 Q833.659 1559.04 833.659 1550.57 Q833.659 1541.82 838.37 1536.69 Q843.113 1531.54 851.133 1531.54 Q858.327 1531.54 862.496 1536.18 Q866.697 1540.8 866.697 1548.76 M860.841 1547.04 Q860.777 1542.23 858.136 1539.37 Q855.526 1536.5 851.197 1536.5 Q846.295 1536.5 843.335 1539.27 Q840.407 1542.04 839.962 1547.07 L860.841 1547.04 Z" fill="#000000" fill-rule="nonzero" fill-opacity="1" /><path clip-path="url(#clip110)" d="M913.231 1550.12 Q906.133 1550.12 903.396 1551.75 Q900.659 1553.37 900.659 1557.29 Q900.659 1560.4 902.696 1562.25 Q904.764 1564.07 908.297 1564.07 Q913.167 1564.07 916.095 1560.63 Q919.055 1557.16 919.055 1551.43 L919.055 1550.12 L913.231 1550.12 M924.912 1547.71 L924.912 1568.04 L919.055 1568.04 L919.055 1562.63 Q917.05 1565.88 914.058 1567.44 Q911.066 1568.97 906.738 1568.97 Q901.263 1568.97 898.017 1565.91 Q894.802 1562.82 894.802 1557.67 Q894.802 1551.65 898.812 1548.6 Q902.855 1545.54 910.844 1545.54 L919.055 1545.54 L919.055 1544.97 Q919.055 1540.93 916.382 1538.73 Q913.74 1536.5 908.934 1536.5 Q905.878 1536.5 902.982 1537.23 Q900.086 1537.97 897.412 1539.43 L897.412 1534.02 Q900.627 1532.78 903.65 1532.17 Q906.674 1531.54 909.539 1531.54 Q917.273 1531.54 921.092 1535.55 Q924.912 1539.56 924.912 1547.71 Z" fill="#000000" fill-rule="nonzero" fill-opacity="1" /><path clip-path="url(#clip110)" d="M966.607 1546.53 L966.607 1568.04 L960.751 1568.04 L960.751 1546.72 Q960.751 1541.66 958.777 1539.14 Q956.804 1536.63 952.857 1536.63 Q948.115 1536.63 945.378 1539.65 Q942.64 1542.68 942.64 1547.9 L942.64 1568.04 L936.752 1568.04 L936.752 1532.4 L942.64 1532.4 L942.64 1537.93 Q944.741 1534.72 947.574 1533.13 Q950.438 1531.54 954.162 1531.54 Q960.305 1531.54 963.456 1535.36 Q966.607 1539.14 966.607 1546.53 Z" fill="#000000" fill-rule="nonzero" fill-opacity="1" /><path clip-path="url(#clip110)" d="M1001.75 1549.81 Q1001.75 1543.44 999.104 1539.94 Q996.494 1536.44 991.752 1536.44 Q987.041 1536.44 984.399 1539.94 Q981.789 1543.44 981.789 1549.81 Q981.789 1556.14 984.399 1559.64 Q987.041 1563.14 991.752 1563.14 Q996.494 1563.14 999.104 1559.64 Q1001.75 1556.14 1001.75 1549.81 M1007.6 1563.62 Q1007.6 1572.72 1003.56 1577.15 Q999.518 1581.6 991.179 1581.6 Q988.092 1581.6 985.354 1581.13 Q982.617 1580.68 980.039 1579.72 L980.039 1574.03 Q982.617 1575.43 985.131 1576.1 Q987.646 1576.76 990.256 1576.76 Q996.017 1576.76 998.881 1573.74 Q1001.75 1570.75 1001.75 1564.67 L1001.75 1561.77 Q999.932 1564.92 997.099 1566.48 Q994.266 1568.04 990.319 1568.04 Q983.763 1568.04 979.752 1563.05 Q975.742 1558.05 975.742 1549.81 Q975.742 1541.53 979.752 1536.53 Q983.763 1531.54 990.319 1531.54 Q994.266 1531.54 997.099 1533.1 Q999.932 1534.66 1001.75 1537.81 L1001.75 1532.4 L1007.6 1532.4 L1007.6 1563.62 Z" fill="#000000" fill-rule="nonzero" fill-opacity="1" /><path clip-path="url(#clip110)" d="M1019.67 1518.52 L1025.52 1518.52 L1025.52 1568.04 L1019.67 1568.04 L1019.67 1518.52 Z" fill="#000000" fill-rule="nonzero" fill-opacity="1" /><path clip-path="url(#clip110)" d="M1068.27 1548.76 L1068.27 1551.62 L1041.34 1551.62 Q1041.72 1557.67 1044.97 1560.85 Q1048.25 1564 1054.07 1564 Q1057.45 1564 1060.6 1563.17 Q1063.78 1562.35 1066.9 1560.69 L1066.9 1566.23 Q1063.75 1567.57 1060.44 1568.27 Q1057.13 1568.97 1053.72 1568.97 Q1045.19 1568.97 1040.19 1564 Q1035.23 1559.04 1035.23 1550.57 Q1035.23 1541.82 1039.94 1536.69 Q1044.68 1531.54 1052.7 1531.54 Q1059.9 1531.54 1064.07 1536.18 Q1068.27 1540.8 1068.27 1548.76 M1062.41 1547.04 Q1062.35 1542.23 1059.71 1539.37 Q1057.1 1536.5 1052.77 1536.5 Q1047.87 1536.5 1044.91 1539.27 Q1041.98 1542.04 1041.53 1547.07 L1062.41 1547.04 Z" fill="#000000" fill-rule="nonzero" fill-opacity="1" /><path clip-path="url(#clip110)" d="M1112.67 1518.58 Q1108.4 1525.9 1106.33 1533.06 Q1104.27 1540.23 1104.27 1547.58 Q1104.27 1554.93 1106.33 1562.16 Q1108.44 1569.35 1112.67 1576.64 L1107.58 1576.64 Q1102.8 1569.16 1100.41 1561.93 Q1098.06 1554.71 1098.06 1547.58 Q1098.06 1540.48 1100.41 1533.29 Q1102.77 1526.09 1107.58 1518.58 L1112.67 1518.58 Z" fill="#000000" fill-rule="nonzero" fill-opacity="1" /><path clip-path="url(#clip110)" d="M1147.49 1537.81 L1147.49 1518.52 L1153.35 1518.52 L1153.35 1568.04 L1147.49 1568.04 L1147.49 1562.7 Q1145.64 1565.88 1142.81 1567.44 Q1140.01 1568.97 1136.06 1568.97 Q1129.6 1568.97 1125.53 1563.81 Q1121.48 1558.65 1121.48 1550.25 Q1121.48 1541.85 1125.53 1536.69 Q1129.6 1531.54 1136.06 1531.54 Q1140.01 1531.54 1142.81 1533.1 Q1145.64 1534.62 1147.49 1537.81 M1127.53 1550.25 Q1127.53 1556.71 1130.17 1560.4 Q1132.85 1564.07 1137.49 1564.07 Q1142.14 1564.07 1144.82 1560.4 Q1147.49 1556.71 1147.49 1550.25 Q1147.49 1543.79 1144.82 1540.13 Q1142.14 1536.44 1137.49 1536.44 Q1132.85 1536.44 1130.17 1540.13 Q1127.53 1543.79 1127.53 1550.25 Z" fill="#000000" fill-rule="nonzero" fill-opacity="1" /><path clip-path="url(#clip110)" d="M1195.9 1548.76 L1195.9 1551.62 L1168.97 1551.62 Q1169.35 1557.67 1172.6 1560.85 Q1175.88 1564 1181.7 1564 Q1185.08 1564 1188.23 1563.17 Q1191.41 1562.35 1194.53 1560.69 L1194.53 1566.23 Q1191.38 1567.57 1188.07 1568.27 Q1184.76 1568.97 1181.35 1568.97 Q1172.82 1568.97 1167.83 1564 Q1162.86 1559.04 1162.86 1550.57 Q1162.86 1541.82 1167.57 1536.69 Q1172.32 1531.54 1180.34 1531.54 Q1187.53 1531.54 1191.7 1536.18 Q1195.9 1540.8 1195.9 1548.76 M1190.04 1547.04 Q1189.98 1542.23 1187.34 1539.37 Q1184.73 1536.5 1180.4 1536.5 Q1175.5 1536.5 1172.54 1539.27 Q1169.61 1542.04 1169.16 1547.07 L1190.04 1547.04 Z" fill="#000000" fill-rule="nonzero" fill-opacity="1" /><path clip-path="url(#clip110)" d="M1228.97 1549.81 Q1228.97 1543.44 1226.33 1539.94 Q1223.72 1536.44 1218.98 1536.44 Q1214.27 1536.44 1211.62 1539.94 Q1209.01 1543.44 1209.01 1549.81 Q1209.01 1556.14 1211.62 1559.64 Q1214.27 1563.14 1218.98 1563.14 Q1223.72 1563.14 1226.33 1559.64 Q1228.97 1556.14 1228.97 1549.81 M1234.83 1563.62 Q1234.83 1572.72 1230.78 1577.15 Q1226.74 1581.6 1218.4 1581.6 Q1215.32 1581.6 1212.58 1581.13 Q1209.84 1580.68 1207.26 1579.72 L1207.26 1574.03 Q1209.84 1575.43 1212.36 1576.1 Q1214.87 1576.76 1217.48 1576.76 Q1223.24 1576.76 1226.11 1573.74 Q1228.97 1570.75 1228.97 1564.67 L1228.97 1561.77 Q1227.16 1564.92 1224.32 1566.48 Q1221.49 1568.04 1217.54 1568.04 Q1210.99 1568.04 1206.98 1563.05 Q1202.97 1558.05 1202.97 1549.81 Q1202.97 1541.53 1206.98 1536.53 Q1210.99 1531.54 1217.54 1531.54 Q1221.49 1531.54 1224.32 1533.1 Q1227.16 1534.66 1228.97 1537.81 L1228.97 1532.4 L1234.83 1532.4 L1234.83 1563.62 Z" fill="#000000" fill-rule="nonzero" fill-opacity="1" /><path clip-path="url(#clip110)" d="M1267.55 1537.87 Q1266.56 1537.3 1265.38 1537.04 Q1264.24 1536.76 1262.84 1536.76 Q1257.87 1536.76 1255.2 1540 Q1252.55 1543.22 1252.55 1549.27 L1252.55 1568.04 L1246.67 1568.04 L1246.67 1532.4 L1252.55 1532.4 L1252.55 1537.93 Q1254.4 1534.69 1257.36 1533.13 Q1260.32 1531.54 1264.55 1531.54 Q1265.16 1531.54 1265.89 1531.63 Q1266.62 1531.7 1267.51 1531.85 L1267.55 1537.87 Z" fill="#000000" fill-rule="nonzero" fill-opacity="1" /><path clip-path="url(#clip110)" d="M1302.75 1548.76 L1302.75 1551.62 L1275.82 1551.62 Q1276.2 1557.67 1279.45 1560.85 Q1282.73 1564 1288.55 1564 Q1291.93 1564 1295.08 1563.17 Q1298.26 1562.35 1301.38 1560.69 L1301.38 1566.23 Q1298.23 1567.57 1294.92 1568.27 Q1291.61 1568.97 1288.2 1568.97 Q1279.67 1568.97 1274.68 1564 Q1269.71 1559.04 1269.71 1550.57 Q1269.71 1541.82 1274.42 1536.69 Q1279.16 1531.54 1287.18 1531.54 Q1294.38 1531.54 1298.55 1536.18 Q1302.75 1540.8 1302.75 1548.76 M1296.89 1547.04 Q1296.83 1542.23 1294.19 1539.37 Q1291.58 1536.5 1287.25 1536.5 Q1282.35 1536.5 1279.39 1539.27 Q1276.46 1542.04 1276.01 1547.07 L1296.89 1547.04 Z" fill="#000000" fill-rule="nonzero" fill-opacity="1" /><path clip-path="url(#clip110)" d="M1342.85 1548.76 L1342.85 1551.62 L1315.93 1551.62 Q1316.31 1557.67 1319.55 1560.85 Q1322.83 1564 1328.66 1564 Q1332.03 1564 1335.18 1563.17 Q1338.36 1562.35 1341.48 1560.69 L1341.48 1566.23 Q1338.33 1567.57 1335.02 1568.27 Q1331.71 1568.97 1328.31 1568.97 Q1319.78 1568.97 1314.78 1564 Q1309.81 1559.04 1309.81 1550.57 Q1309.81 1541.82 1314.52 1536.69 Q1319.27 1531.54 1327.29 1531.54 Q1334.48 1531.54 1338.65 1536.18 Q1342.85 1540.8 1342.85 1548.76 M1337 1547.04 Q1336.93 1542.23 1334.29 1539.37 Q1331.68 1536.5 1327.35 1536.5 Q1322.45 1536.5 1319.49 1539.27 Q1316.56 1542.04 1316.12 1547.07 L1337 1547.04 Z" fill="#000000" fill-rule="nonzero" fill-opacity="1" /><path clip-path="url(#clip110)" d="M1375.19 1533.45 L1375.19 1538.98 Q1372.71 1537.71 1370.03 1537.07 Q1367.36 1536.44 1364.5 1536.44 Q1360.14 1536.44 1357.94 1537.77 Q1355.77 1539.11 1355.77 1541.79 Q1355.77 1543.82 1357.33 1545 Q1358.89 1546.15 1363.6 1547.2 L1365.61 1547.64 Q1371.85 1548.98 1374.46 1551.43 Q1377.1 1553.85 1377.1 1558.21 Q1377.1 1563.17 1373.15 1566.07 Q1369.24 1568.97 1362.36 1568.97 Q1359.5 1568.97 1356.38 1568.39 Q1353.29 1567.85 1349.85 1566.74 L1349.85 1560.69 Q1353.1 1562.38 1356.25 1563.24 Q1359.4 1564.07 1362.49 1564.07 Q1366.63 1564.07 1368.86 1562.66 Q1371.08 1561.23 1371.08 1558.65 Q1371.08 1556.27 1369.46 1554.99 Q1367.87 1553.72 1362.43 1552.54 L1360.39 1552.07 Q1354.95 1550.92 1352.53 1548.56 Q1350.11 1546.18 1350.11 1542.04 Q1350.11 1537.01 1353.67 1534.27 Q1357.24 1531.54 1363.8 1531.54 Q1367.04 1531.54 1369.91 1532.01 Q1372.77 1532.49 1375.19 1533.45 Z" fill="#000000" fill-rule="nonzero" fill-opacity="1" /><path clip-path="url(#clip110)" d="M1385.5 1518.58 L1390.6 1518.58 Q1395.37 1526.09 1397.72 1533.29 Q1400.11 1540.48 1400.11 1547.58 Q1400.11 1554.71 1397.72 1561.93 Q1395.37 1569.16 1390.6 1576.64 L1385.5 1576.64 Q1389.74 1569.35 1391.8 1562.16 Q1393.91 1554.93 1393.91 1547.58 Q1393.91 1540.23 1391.8 1533.06 Q1389.74 1525.9 1385.5 1518.58 Z" fill="#000000" fill-rule="nonzero" fill-opacity="1" /><polyline clip-path="url(#clip112)" style="stroke:#000000; stroke-linecap:round; stroke-linejoin:round; stroke-width:2; stroke-opacity:0.1; fill:none" points="219.033,1253.71 1744.42,1253.71 "/>
<polyline clip-path="url(#clip112)" style="stroke:#000000; stroke-linecap:round; stroke-linejoin:round; stroke-width:2; stroke-opacity:0.1; fill:none" points="219.033,961.487 1744.42,961.487 "/>
<polyline clip-path="url(#clip112)" style="stroke:#000000; stroke-linecap:round; stroke-linejoin:round; stroke-width:2; stroke-opacity:0.1; fill:none" points="219.033,669.261 1744.42,669.261 "/>
<polyline clip-path="url(#clip112)" style="stroke:#000000; stroke-linecap:round; stroke-linejoin:round; stroke-width:2; stroke-opacity:0.1; fill:none" points="219.033,377.034 1744.42,377.034 "/>
<polyline clip-path="url(#clip112)" style="stroke:#000000; stroke-linecap:round; stroke-linejoin:round; stroke-width:2; stroke-opacity:0.1; fill:none" points="219.033,84.8082 1744.42,84.8082 "/>
<polyline clip-path="url(#clip110)" style="stroke:#000000; stroke-linecap:round; stroke-linejoin:round; stroke-width:4; stroke-opacity:1; fill:none" points="219.033,1423.18 219.033,47.2441 "/>
<polyline clip-path="url(#clip110)" style="stroke:#000000; stroke-linecap:round; stroke-linejoin:round; stroke-width:4; stroke-opacity:1; fill:none" points="219.033,1253.71 232.543,1253.71 "/>
<polyline clip-path="url(#clip110)" style="stroke:#000000; stroke-linecap:round; stroke-linejoin:round; stroke-width:4; stroke-opacity:1; fill:none" points="219.033,961.487 232.543,961.487 "/>
<polyline clip-path="url(#clip110)" style="stroke:#000000; stroke-linecap:round; stroke-linejoin:round; stroke-width:4; stroke-opacity:1; fill:none" points="219.033,669.261 232.543,669.261 "/>
<polyline clip-path="url(#clip110)" style="stroke:#000000; stroke-linecap:round; stroke-linejoin:round; stroke-width:4; stroke-opacity:1; fill:none" points="219.033,377.034 232.543,377.034 "/>
<polyline clip-path="url(#clip110)" style="stroke:#000000; stroke-linecap:round; stroke-linejoin:round; stroke-width:4; stroke-opacity:1; fill:none" points="219.033,84.8082 232.543,84.8082 "/>
<path clip-path="url(#clip110)" d="M126.853 1239.51 Q123.242 1239.51 121.413 1243.08 Q119.607 1246.62 119.607 1253.75 Q119.607 1260.85 121.413 1264.42 Q123.242 1267.96 126.853 1267.96 Q130.487 1267.96 132.292 1264.42 Q134.121 1260.85 134.121 1253.75 Q134.121 1246.62 132.292 1243.08 Q130.487 1239.51 126.853 1239.51 M126.853 1235.81 Q132.663 1235.81 135.718 1240.41 Q138.797 1245 138.797 1253.75 Q138.797 1262.47 135.718 1267.08 Q132.663 1271.66 126.853 1271.66 Q121.043 1271.66 117.964 1267.08 Q114.908 1262.47 114.908 1253.75 Q114.908 1245 117.964 1240.41 Q121.043 1235.81 126.853 1235.81 Z" fill="#000000" fill-rule="nonzero" fill-opacity="1" /><path clip-path="url(#clip110)" d="M147.015 1265.11 L151.899 1265.11 L151.899 1270.99 L147.015 1270.99 L147.015 1265.11 Z" fill="#000000" fill-rule="nonzero" fill-opacity="1" /><path clip-path="url(#clip110)" d="M162.13 1236.43 L180.487 1236.43 L180.487 1240.37 L166.413 1240.37 L166.413 1248.84 Q167.431 1248.49 168.45 1248.33 Q169.468 1248.15 170.487 1248.15 Q176.274 1248.15 179.653 1251.32 Q183.033 1254.49 183.033 1259.9 Q183.033 1265.48 179.561 1268.59 Q176.089 1271.66 169.769 1271.66 Q167.593 1271.66 165.325 1271.29 Q163.079 1270.92 160.672 1270.18 L160.672 1265.48 Q162.755 1266.62 164.977 1267.17 Q167.2 1267.73 169.677 1267.73 Q173.681 1267.73 176.019 1265.62 Q178.357 1263.52 178.357 1259.9 Q178.357 1256.29 176.019 1254.19 Q173.681 1252.08 169.677 1252.08 Q167.802 1252.08 165.927 1252.5 Q164.075 1252.91 162.13 1253.79 L162.13 1236.43 Z" fill="#000000" fill-rule="nonzero" fill-opacity="1" /><path clip-path="url(#clip110)" d="M116.668 974.832 L124.306 974.832 L124.306 948.466 L115.996 950.133 L115.996 945.873 L124.26 944.207 L128.936 944.207 L128.936 974.832 L136.575 974.832 L136.575 978.767 L116.668 978.767 L116.668 974.832 Z" fill="#000000" fill-rule="nonzero" fill-opacity="1" /><path clip-path="url(#clip110)" d="M146.019 972.887 L150.903 972.887 L150.903 978.767 L146.019 978.767 L146.019 972.887 Z" fill="#000000" fill-rule="nonzero" fill-opacity="1" /><path clip-path="url(#clip110)" d="M171.089 947.285 Q167.477 947.285 165.649 950.85 Q163.843 954.392 163.843 961.521 Q163.843 968.628 165.649 972.193 Q167.477 975.734 171.089 975.734 Q174.723 975.734 176.528 972.193 Q178.357 968.628 178.357 961.521 Q178.357 954.392 176.528 950.85 Q174.723 947.285 171.089 947.285 M171.089 943.582 Q176.899 943.582 179.954 948.188 Q183.033 952.771 183.033 961.521 Q183.033 970.248 179.954 974.855 Q176.899 979.438 171.089 979.438 Q165.278 979.438 162.2 974.855 Q159.144 970.248 159.144 961.521 Q159.144 952.771 162.2 948.188 Q165.278 943.582 171.089 943.582 Z" fill="#000000" fill-rule="nonzero" fill-opacity="1" /><path clip-path="url(#clip110)" d="M117.663 682.605 L125.302 682.605 L125.302 656.24 L116.992 657.906 L116.992 653.647 L125.255 651.981 L129.931 651.981 L129.931 682.605 L137.57 682.605 L137.57 686.541 L117.663 686.541 L117.663 682.605 Z" fill="#000000" fill-rule="nonzero" fill-opacity="1" /><path clip-path="url(#clip110)" d="M147.015 680.661 L151.899 680.661 L151.899 686.541 L147.015 686.541 L147.015 680.661 Z" fill="#000000" fill-rule="nonzero" fill-opacity="1" /><path clip-path="url(#clip110)" d="M162.13 651.981 L180.487 651.981 L180.487 655.916 L166.413 655.916 L166.413 664.388 Q167.431 664.041 168.45 663.879 Q169.468 663.693 170.487 663.693 Q176.274 663.693 179.653 666.865 Q183.033 670.036 183.033 675.453 Q183.033 681.031 179.561 684.133 Q176.089 687.212 169.769 687.212 Q167.593 687.212 165.325 686.841 Q163.079 686.471 160.672 685.73 L160.672 681.031 Q162.755 682.166 164.977 682.721 Q167.2 683.277 169.677 683.277 Q173.681 683.277 176.019 681.17 Q178.357 679.064 178.357 675.453 Q178.357 671.842 176.019 669.735 Q173.681 667.629 169.677 667.629 Q167.802 667.629 165.927 668.045 Q164.075 668.462 162.13 669.342 L162.13 651.981 Z" fill="#000000" fill-rule="nonzero" fill-opacity="1" /><path clip-path="url(#clip110)" d="M119.885 390.379 L136.204 390.379 L136.204 394.314 L114.26 394.314 L114.26 390.379 Q116.922 387.625 121.505 382.995 Q126.112 378.342 127.292 377 Q129.538 374.477 130.417 372.74 Q131.32 370.981 131.32 369.291 Q131.32 366.537 129.376 364.801 Q127.455 363.065 124.353 363.065 Q122.154 363.065 119.7 363.828 Q117.269 364.592 114.492 366.143 L114.492 361.421 Q117.316 360.287 119.769 359.708 Q122.223 359.129 124.26 359.129 Q129.63 359.129 132.825 361.815 Q136.019 364.5 136.019 368.99 Q136.019 371.12 135.209 373.041 Q134.422 374.939 132.316 377.532 Q131.737 378.203 128.635 381.421 Q125.533 384.615 119.885 390.379 Z" fill="#000000" fill-rule="nonzero" fill-opacity="1" /><path clip-path="url(#clip110)" d="M146.019 388.435 L150.903 388.435 L150.903 394.314 L146.019 394.314 L146.019 388.435 Z" fill="#000000" fill-rule="nonzero" fill-opacity="1" /><path clip-path="url(#clip110)" d="M171.089 362.833 Q167.477 362.833 165.649 366.398 Q163.843 369.94 163.843 377.069 Q163.843 384.176 165.649 387.74 Q167.477 391.282 171.089 391.282 Q174.723 391.282 176.528 387.74 Q178.357 384.176 178.357 377.069 Q178.357 369.94 176.528 366.398 Q174.723 362.833 171.089 362.833 M171.089 359.129 Q176.899 359.129 179.954 363.736 Q183.033 368.319 183.033 377.069 Q183.033 385.796 179.954 390.402 Q176.899 394.986 171.089 394.986 Q165.278 394.986 162.2 390.402 Q159.144 385.796 159.144 377.069 Q159.144 368.319 162.2 363.736 Q165.278 359.129 171.089 359.129 Z" fill="#000000" fill-rule="nonzero" fill-opacity="1" /><path clip-path="url(#clip110)" d="M120.88 98.1531 L137.2 98.1531 L137.2 102.088 L115.256 102.088 L115.256 98.1531 Q117.918 95.3984 122.501 90.7688 Q127.107 86.1161 128.288 84.7735 Q130.533 82.2504 131.413 80.5143 Q132.316 78.755 132.316 77.0652 Q132.316 74.3106 130.371 72.5745 Q128.45 70.8384 125.348 70.8384 Q123.149 70.8384 120.695 71.6023 Q118.265 72.3662 115.487 73.9171 L115.487 69.1949 Q118.311 68.0606 120.765 67.4819 Q123.218 66.9032 125.255 66.9032 Q130.626 66.9032 133.82 69.5884 Q137.015 72.2736 137.015 76.7643 Q137.015 78.8939 136.204 80.8152 Q135.417 82.7133 133.311 85.3059 Q132.732 85.9772 129.63 89.1948 Q126.529 92.3892 120.88 98.1531 Z" fill="#000000" fill-rule="nonzero" fill-opacity="1" /><path clip-path="url(#clip110)" d="M147.015 96.2086 L151.899 96.2086 L151.899 102.088 L147.015 102.088 L147.015 96.2086 Z" fill="#000000" fill-rule="nonzero" fill-opacity="1" /><path clip-path="url(#clip110)" d="M162.13 67.5282 L180.487 67.5282 L180.487 71.4634 L166.413 71.4634 L166.413 79.9356 Q167.431 79.5883 168.45 79.4263 Q169.468 79.2411 170.487 79.2411 Q176.274 79.2411 179.653 82.4124 Q183.033 85.5837 183.033 91.0003 Q183.033 96.579 179.561 99.6808 Q176.089 102.76 169.769 102.76 Q167.593 102.76 165.325 102.389 Q163.079 102.019 160.672 101.278 L160.672 96.579 Q162.755 97.7132 164.977 98.2688 Q167.2 98.8244 169.677 98.8244 Q173.681 98.8244 176.019 96.7179 Q178.357 94.6114 178.357 91.0003 Q178.357 87.3892 176.019 85.2828 Q173.681 83.1763 169.677 83.1763 Q167.802 83.1763 165.927 83.593 Q164.075 84.0096 162.13 84.8892 L162.13 67.5282 Z" fill="#000000" fill-rule="nonzero" fill-opacity="1" /><path clip-path="url(#clip110)" d="M16.4842 973.162 L16.4842 966.733 L64.0042 966.733 L64.0042 973.162 L16.4842 973.162 Z" fill="#000000" fill-rule="nonzero" fill-opacity="1" /><path clip-path="url(#clip110)" d="M42.4881 924.56 L64.0042 924.56 L64.0042 930.416 L42.679 930.416 Q37.6183 930.416 35.1038 932.39 Q32.5894 934.363 32.5894 938.31 Q32.5894 943.052 35.6131 945.79 Q38.6368 948.527 43.8567 948.527 L64.0042 948.527 L64.0042 954.415 L28.3562 954.415 L28.3562 948.527 L33.8944 948.527 Q30.6797 946.426 29.0883 943.593 Q27.4968 940.729 27.4968 937.005 Q27.4968 930.862 31.3163 927.711 Q35.1038 924.56 42.4881 924.56 Z" fill="#000000" fill-rule="nonzero" fill-opacity="1" /><path clip-path="url(#clip110)" d="M18.2347 907.086 L28.3562 907.086 L28.3562 895.023 L32.9077 895.023 L32.9077 907.086 L52.2594 907.086 Q56.6199 907.086 57.8613 905.908 Q59.1026 904.699 59.1026 901.039 L59.1026 895.023 L64.0042 895.023 L64.0042 901.039 Q64.0042 907.818 61.4897 910.396 Q58.9434 912.974 52.2594 912.974 L32.9077 912.974 L32.9077 917.271 L28.3562 917.271 L28.3562 912.974 L18.2347 912.974 L18.2347 907.086 Z" fill="#000000" fill-rule="nonzero" fill-opacity="1" /><path clip-path="url(#clip110)" d="M44.7161 856.829 L47.5806 856.829 L47.5806 883.756 Q53.6281 883.374 56.8109 880.127 Q59.9619 876.849 59.9619 871.024 Q59.9619 867.65 59.1344 864.499 Q58.3069 861.317 56.6518 858.197 L62.1899 858.197 Q63.5267 861.348 64.227 864.659 Q64.9272 867.969 64.9272 871.374 Q64.9272 879.904 59.9619 884.902 Q54.9967 889.867 46.5303 889.867 Q37.7774 889.867 32.6531 885.156 Q27.4968 880.414 27.4968 872.393 Q27.4968 865.2 32.1438 861.03 Q36.7589 856.829 44.7161 856.829 M42.9973 862.685 Q38.1912 862.749 35.3266 865.391 Q32.4621 868.001 32.4621 872.329 Q32.4621 877.231 35.2312 880.191 Q38.0002 883.119 43.0292 883.565 L42.9973 862.685 Z" fill="#000000" fill-rule="nonzero" fill-opacity="1" /><path clip-path="url(#clip110)" d="M42.4881 817.584 L64.0042 817.584 L64.0042 823.441 L42.679 823.441 Q37.6183 823.441 35.1038 825.414 Q32.5894 827.387 32.5894 831.334 Q32.5894 836.077 35.6131 838.814 Q38.6368 841.551 43.8567 841.551 L64.0042 841.551 L64.0042 847.439 L28.3562 847.439 L28.3562 841.551 L33.8944 841.551 Q30.6797 839.45 29.0883 836.618 Q27.4968 833.753 27.4968 830.029 Q27.4968 823.886 31.3163 820.735 Q35.1038 817.584 42.4881 817.584 Z" fill="#000000" fill-rule="nonzero" fill-opacity="1" /><path clip-path="url(#clip110)" d="M29.4065 783.178 L34.9447 783.178 Q33.6716 785.66 33.035 788.334 Q32.3984 791.007 32.3984 793.872 Q32.3984 798.232 33.7352 800.429 Q35.072 802.593 37.7456 802.593 Q39.7826 802.593 40.9603 801.033 Q42.1061 799.474 43.1565 794.763 L43.6021 792.758 Q44.9389 786.52 47.3897 783.91 Q49.8086 781.268 54.1691 781.268 Q59.1344 781.268 62.0308 785.215 Q64.9272 789.13 64.9272 796.004 Q64.9272 798.869 64.3543 801.988 Q63.8132 805.076 62.6992 808.513 L56.6518 808.513 Q58.3387 805.267 59.198 802.116 Q60.0256 798.965 60.0256 795.877 Q60.0256 791.739 58.6251 789.511 Q57.1929 787.283 54.6147 787.283 Q52.2276 787.283 50.9545 788.907 Q49.6813 790.498 48.5037 795.941 L48.0262 797.978 Q46.8804 803.421 44.5251 805.839 Q42.138 808.258 38.0002 808.258 Q32.9713 808.258 30.2341 804.694 Q27.4968 801.129 27.4968 794.572 Q27.4968 791.326 27.9743 788.461 Q28.4517 785.597 29.4065 783.178 Z" fill="#000000" fill-rule="nonzero" fill-opacity="1" /><path clip-path="url(#clip110)" d="M28.3562 771.942 L28.3562 766.086 L64.0042 766.086 L64.0042 771.942 L28.3562 771.942 M14.479 771.942 L14.479 766.086 L21.895 766.086 L21.895 771.942 L14.479 771.942 Z" fill="#000000" fill-rule="nonzero" fill-opacity="1" /><path clip-path="url(#clip110)" d="M18.2347 748.039 L28.3562 748.039 L28.3562 735.976 L32.9077 735.976 L32.9077 748.039 L52.2594 748.039 Q56.6199 748.039 57.8613 746.861 Q59.1026 745.652 59.1026 741.991 L59.1026 735.976 L64.0042 735.976 L64.0042 741.991 Q64.0042 748.771 61.4897 751.349 Q58.9434 753.927 52.2594 753.927 L32.9077 753.927 L32.9077 758.224 L28.3562 758.224 L28.3562 753.927 L18.2347 753.927 L18.2347 748.039 Z" fill="#000000" fill-rule="nonzero" fill-opacity="1" /><path clip-path="url(#clip110)" d="M67.3143 713.441 Q73.68 715.924 75.6216 718.279 Q77.5631 720.635 77.5631 724.581 L77.5631 729.26 L72.6615 729.26 L72.6615 725.823 Q72.6615 723.404 71.5157 722.067 Q70.3699 720.73 66.1048 719.107 L63.4312 718.056 L28.3562 732.475 L28.3562 726.268 L56.238 715.128 L28.3562 703.988 L28.3562 697.782 L67.3143 713.441 Z" fill="#000000" fill-rule="nonzero" fill-opacity="1" /><path clip-path="url(#clip110)" d="M14.5426 654.909 Q21.8632 659.174 29.0246 661.242 Q36.186 663.311 43.5384 663.311 Q50.8908 663.311 58.1159 661.242 Q65.3091 659.142 72.5979 654.909 L72.5979 660.001 Q65.1182 664.775 57.8931 667.163 Q50.668 669.518 43.5384 669.518 Q36.4406 669.518 29.2474 667.163 Q22.0542 664.807 14.5426 660.001 L14.5426 654.909 Z" fill="#000000" fill-rule="nonzero" fill-opacity="1" /><path clip-path="url(#clip110)" d="M22.818 627.409 L46.4666 636.13 L46.4666 618.656 L22.818 627.409 M16.4842 631.037 L16.4842 623.748 L64.0042 605.638 L64.0042 612.322 L51.8138 616.651 L51.8138 638.071 L64.0042 642.4 L64.0042 649.179 L16.4842 631.037 Z" fill="#000000" fill-rule="nonzero" fill-opacity="1" /><path clip-path="url(#clip110)" d="M55.9197 599.272 L55.9197 592.556 L64.0042 592.556 L64.0042 599.272 L55.9197 599.272 Z" fill="#000000" fill-rule="nonzero" fill-opacity="1" /><path clip-path="url(#clip110)" d="M16.4842 579.857 L16.4842 573.396 L45.3526 573.396 Q52.9915 573.396 56.3653 570.627 Q59.7073 567.858 59.7073 561.651 Q59.7073 555.476 56.3653 552.707 Q52.9915 549.938 45.3526 549.938 L16.4842 549.938 L16.4842 543.477 L46.1484 543.477 Q55.4423 543.477 60.1847 548.092 Q64.9272 552.675 64.9272 561.651 Q64.9272 570.658 60.1847 575.274 Q55.4423 579.857 46.1484 579.857 L16.4842 579.857 Z" fill="#000000" fill-rule="nonzero" fill-opacity="1" /><path clip-path="url(#clip110)" d="M55.9197 530.841 L55.9197 524.125 L64.0042 524.125 L64.0042 530.841 L55.9197 530.841 Z" fill="#000000" fill-rule="nonzero" fill-opacity="1" /><path clip-path="url(#clip110)" d="M14.5426 511.871 L14.5426 506.779 Q22.0542 502.004 29.2474 499.649 Q36.4406 497.262 43.5384 497.262 Q50.668 497.262 57.8931 499.649 Q65.1182 502.004 72.5979 506.779 L72.5979 511.871 Q65.3091 507.638 58.1159 505.569 Q50.8908 503.468 43.5384 503.468 Q36.186 503.468 29.0246 505.569 Q21.8632 507.638 14.5426 511.871 Z" fill="#000000" fill-rule="nonzero" fill-opacity="1" /><polyline clip-path="url(#clip112)" style="stroke:#009af9; stroke-linecap:round; stroke-linejoin:round; stroke-width:8; stroke-opacity:1; fill:none" points="262.204,885.419 276.74,886.199 291.276,888.536 305.812,892.43 320.347,897.875 334.883,904.867 349.419,913.394 363.955,923.446 378.491,935.003 393.026,948.041 407.562,962.528 422.098,978.423 436.634,995.673 451.169,1014.21 465.705,1033.96 480.241,1054.81 494.777,1076.64 509.313,1099.32 523.848,1122.68 538.384,1146.5 552.92,1170.58 567.456,1194.65 581.992,1218.41 596.527,1241.54 611.063,1263.66 625.599,1284.37 640.135,1303.25 654.671,1319.81 669.206,1333.56 683.742,1343.98 698.278,1350.54 712.814,1352.71 727.349,1349.95 741.885,1341.77 756.421,1327.71 770.957,1307.38 785.493,1280.48 800.028,1246.8 814.564,1206.28 829.1,1159.01 843.636,1105.26 858.172,1045.47 872.707,980.298 887.243,910.606 901.779,837.451 916.315,762.077 930.851,685.892 945.386,610.438 959.922,537.35 974.458,468.31 988.994,405.001 1003.53,349.052 1018.07,301.99 1032.6,265.191 1047.14,239.837 1061.67,226.882 1076.21,227.017 1090.74,240.648 1105.28,267.88 1119.82,308.503 1134.35,361.98 1148.89,427.445 1163.42,503.693 1177.96,589.18 1192.49,682.014 1207.03,779.954 1221.57,880.415 1236.1,980.475 1250.64,1076.9 1265.17,1166.2 1279.71,1244.68 1294.25,1308.6 1308.78,1354.31 1323.32,1378.49 1337.85,1378.42 1352.39,1352.31 1366.92,1299.6 1381.46,1221.21 1396,1119.79 1410.53,999.681 1425.07,866.777 1439.6,728.14 1454.14,591.463 1468.67,464.44 1483.21,354.135 1497.75,266.447 1512.28,205.744 1526.82,174.683 1541.35,174.216 1555.89,203.726 1570.43,261.249 1584.96,343.718 1599.5,447.194 1614.03,567.059 1628.57,698.147 1643.1,834.825 1657.64,971.044 1672.18,1100.37 1686.71,1216.03 1701.25,1311.06 "/>
<polyline clip-path="url(#clip112)" style="stroke:#e26f46; stroke-linecap:round; stroke-linejoin:round; stroke-width:8; stroke-opacity:1; fill:none" points="262.204,580.536 276.74,579.853 291.276,577.808 305.812,574.413 320.347,569.687 334.883,563.659 349.419,556.367 363.955,547.858 378.491,538.192 393.026,527.44 407.562,515.687 422.098,503.036 436.634,489.603 451.169,475.525 465.705,460.959 480.241,446.084 494.777,431.102 509.313,416.24 523.848,401.753 538.384,387.92 552.92,375.048 567.456,363.472 581.992,353.552 596.527,345.67 611.063,340.231 625.599,337.654 640.135,338.368 654.671,342.803 669.206,351.382 683.742,364.509 698.278,382.552 712.814,405.832 727.349,434.603 741.885,469.031 756.421,509.178 770.957,554.979 785.493,606.221 800.028,662.531 814.564,723.354 829.1,787.948 843.636,855.381 858.172,924.531 872.707,994.102 887.243,1062.65 901.779,1128.6 916.315,1190.31 930.851,1246.12 945.386,1294.36 959.922,1333.49 974.458,1362.09 988.994,1378.95 1003.53,1383.14 1018.07,1374 1032.6,1351.23 1047.14,1314.9 1061.67,1265.44 1076.21,1203.68 1090.74,1130.82 1105.28,1048.4 1119.82,958.342 1134.35,862.836 1148.89,764.375 1163.42,665.687 1177.96,569.702 1192.49,479.496 1207.03,398.234 1221.57,329.095 1236.1,275.176 1250.64,239.377 1265.17,224.252 1279.71,231.833 1294.25,263.424 1308.78,319.372 1323.32,398.844 1337.85,499.615 1352.39,617.94 1366.92,748.526 1381.46,884.679 1396,1018.63 1410.53,1142.05 1425.07,1246.77 1439.6,1325.49 1454.14,1372.49 1468.67,1384.24 1483.21,1359.64 1497.75,1300.11 1512.28,1209.32 1526.82,1092.78 1541.35,957.325 1555.89,810.567 1570.43,660.403 1584.96,514.63 1599.5,380.643 1614.03,265.23 1628.57,174.421 1643.1,113.363 1657.64,86.1857 1672.18,95.8093 1686.71,143.686 1701.25,229.442 "/>
<path clip-path="url(#clip110)" d="M1815.54 248.629 L2352.76 248.629 L2352.76 93.1086 L1815.54 93.1086  Z" fill="#ffffff" fill-rule="evenodd" fill-opacity="1"/>
<polyline clip-path="url(#clip110)" style="stroke:#000000; stroke-linecap:round; stroke-linejoin:round; stroke-width:4; stroke-opacity:1; fill:none" points="1815.54,248.629 2352.76,248.629 2352.76,93.1086 1815.54,93.1086 1815.54,248.629 "/>
<polyline clip-path="url(#clip110)" style="stroke:#009af9; stroke-linecap:round; stroke-linejoin:round; stroke-width:8; stroke-opacity:1; fill:none" points="1839.25,144.949 1981.5,144.949 "/>
<path clip-path="url(#clip110)" d="M2005.21 127.669 L2009.88 127.669 L2009.88 141.835 L2026.87 141.835 L2026.87 127.669 L2031.55 127.669 L2031.55 162.229 L2026.87 162.229 L2026.87 145.77 L2009.88 145.77 L2009.88 162.229 L2005.21 162.229 L2005.21 127.669 Z" fill="#000000" fill-rule="nonzero" fill-opacity="1" /><path clip-path="url(#clip110)" d="M2056.29 140.701 L2085.97 140.701 L2085.97 144.59 L2056.29 144.59 L2056.29 140.701 M2056.29 150.145 L2085.97 150.145 L2085.97 154.081 L2056.29 154.081 L2056.29 150.145 Z" fill="#000000" fill-rule="nonzero" fill-opacity="1" /><path clip-path="url(#clip110)" d="M2111.27 161.511 L2111.27 157.252 Q2113.03 158.085 2114.84 158.525 Q2116.64 158.965 2118.38 158.965 Q2123.01 158.965 2125.44 155.863 Q2127.89 152.738 2128.24 146.395 Q2126.9 148.386 2124.84 149.451 Q2122.78 150.516 2120.28 150.516 Q2115.09 150.516 2112.06 147.391 Q2109.05 144.243 2109.05 138.803 Q2109.05 133.479 2112.2 130.261 Q2115.35 127.044 2120.58 127.044 Q2126.57 127.044 2129.72 131.65 Q2132.89 136.233 2132.89 144.983 Q2132.89 153.155 2129 158.039 Q2125.14 162.9 2118.59 162.9 Q2116.83 162.9 2115.02 162.553 Q2113.22 162.205 2111.27 161.511 M2120.58 146.858 Q2123.72 146.858 2125.55 144.706 Q2127.41 142.553 2127.41 138.803 Q2127.41 135.076 2125.55 132.923 Q2123.72 130.747 2120.58 130.747 Q2117.43 130.747 2115.58 132.923 Q2113.75 135.076 2113.75 138.803 Q2113.75 142.553 2115.58 144.706 Q2117.43 146.858 2120.58 146.858 Z" fill="#000000" fill-rule="nonzero" fill-opacity="1" /><path clip-path="url(#clip110)" d="M2154.14 131.743 L2142.34 150.192 L2154.14 150.192 L2154.14 131.743 M2152.91 127.669 L2158.79 127.669 L2158.79 150.192 L2163.72 150.192 L2163.72 154.081 L2158.79 154.081 L2158.79 162.229 L2154.14 162.229 L2154.14 154.081 L2138.54 154.081 L2138.54 149.567 L2152.91 127.669 Z" fill="#000000" fill-rule="nonzero" fill-opacity="1" /><path clip-path="url(#clip110)" d="M2171.46 156.349 L2176.34 156.349 L2176.34 162.229 L2171.46 162.229 L2171.46 156.349 Z" fill="#000000" fill-rule="nonzero" fill-opacity="1" /><path clip-path="url(#clip110)" d="M2196.53 130.747 Q2192.91 130.747 2191.09 134.312 Q2189.28 137.854 2189.28 144.983 Q2189.28 152.09 2191.09 155.655 Q2192.91 159.196 2196.53 159.196 Q2200.16 159.196 2201.97 155.655 Q2203.79 152.09 2203.79 144.983 Q2203.79 137.854 2201.97 134.312 Q2200.16 130.747 2196.53 130.747 M2196.53 127.044 Q2202.34 127.044 2205.39 131.65 Q2208.47 136.233 2208.47 144.983 Q2208.47 153.71 2205.39 158.317 Q2202.34 162.9 2196.53 162.9 Q2190.72 162.9 2187.64 158.317 Q2184.58 153.71 2184.58 144.983 Q2184.58 136.233 2187.64 131.65 Q2190.72 127.044 2196.53 127.044 Z" fill="#000000" fill-rule="nonzero" fill-opacity="1" /><path clip-path="url(#clip110)" d="M2252.71 146.581 L2252.71 162.229 L2248.45 162.229 L2248.45 146.719 Q2248.45 143.039 2247.01 141.21 Q2245.58 139.382 2242.71 139.382 Q2239.26 139.382 2237.27 141.581 Q2235.28 143.78 2235.28 147.576 L2235.28 162.229 L2230.99 162.229 L2230.99 136.303 L2235.28 136.303 L2235.28 140.331 Q2236.8 137.993 2238.86 136.835 Q2240.95 135.678 2243.65 135.678 Q2248.12 135.678 2250.41 138.456 Q2252.71 141.21 2252.71 146.581 Z" fill="#000000" fill-rule="nonzero" fill-opacity="1" /><path clip-path="url(#clip110)" d="M2281.39 141.28 Q2282.98 138.409 2285.21 137.044 Q2287.43 135.678 2290.44 135.678 Q2294.49 135.678 2296.69 138.525 Q2298.89 141.349 2298.89 146.581 L2298.89 162.229 L2294.6 162.229 L2294.6 146.719 Q2294.6 142.993 2293.28 141.187 Q2291.96 139.382 2289.26 139.382 Q2285.95 139.382 2284.02 141.581 Q2282.1 143.78 2282.1 147.576 L2282.1 162.229 L2277.82 162.229 L2277.82 146.719 Q2277.82 142.969 2276.5 141.187 Q2275.18 139.382 2272.43 139.382 Q2269.16 139.382 2267.24 141.604 Q2265.32 143.803 2265.32 147.576 L2265.32 162.229 L2261.04 162.229 L2261.04 136.303 L2265.32 136.303 L2265.32 140.331 Q2266.78 137.946 2268.82 136.812 Q2270.85 135.678 2273.65 135.678 Q2276.48 135.678 2278.45 137.113 Q2280.44 138.548 2281.39 141.28 Z" fill="#000000" fill-rule="nonzero" fill-opacity="1" /><polyline clip-path="url(#clip110)" style="stroke:#e26f46; stroke-linecap:round; stroke-linejoin:round; stroke-width:8; stroke-opacity:1; fill:none" points="1839.25,196.789 1981.5,196.789 "/>
<path clip-path="url(#clip110)" d="M2005.21 179.509 L2009.88 179.509 L2009.88 193.675 L2026.87 193.675 L2026.87 179.509 L2031.55 179.509 L2031.55 214.069 L2026.87 214.069 L2026.87 197.61 L2009.88 197.61 L2009.88 214.069 L2005.21 214.069 L2005.21 179.509 Z" fill="#000000" fill-rule="nonzero" fill-opacity="1" /><path clip-path="url(#clip110)" d="M2056.29 192.541 L2085.97 192.541 L2085.97 196.43 L2056.29 196.43 L2056.29 192.541 M2056.29 201.985 L2085.97 201.985 L2085.97 205.921 L2056.29 205.921 L2056.29 201.985 Z" fill="#000000" fill-rule="nonzero" fill-opacity="1" /><path clip-path="url(#clip110)" d="M2115.16 210.133 L2131.48 210.133 L2131.48 214.069 L2109.54 214.069 L2109.54 210.133 Q2112.2 207.379 2116.78 202.749 Q2121.39 198.096 2122.57 196.754 Q2124.81 194.231 2125.69 192.495 Q2126.6 190.735 2126.6 189.046 Q2126.6 186.291 2124.65 184.555 Q2122.73 182.819 2119.63 182.819 Q2117.43 182.819 2114.97 183.583 Q2112.54 184.347 2109.77 185.897 L2109.77 181.175 Q2112.59 180.041 2115.04 179.462 Q2117.5 178.884 2119.54 178.884 Q2124.91 178.884 2128.1 181.569 Q2131.29 184.254 2131.29 188.745 Q2131.29 190.874 2130.48 192.796 Q2129.7 194.694 2127.59 197.286 Q2127.01 197.958 2123.91 201.175 Q2120.81 204.37 2115.16 210.133 Z" fill="#000000" fill-rule="nonzero" fill-opacity="1" /><path clip-path="url(#clip110)" d="M2151.29 182.587 Q2147.68 182.587 2145.85 186.152 Q2144.05 189.694 2144.05 196.823 Q2144.05 203.93 2145.85 207.495 Q2147.68 211.036 2151.29 211.036 Q2154.93 211.036 2156.73 207.495 Q2158.56 203.93 2158.56 196.823 Q2158.56 189.694 2156.73 186.152 Q2154.93 182.587 2151.29 182.587 M2151.29 178.884 Q2157.1 178.884 2160.16 183.49 Q2163.24 188.073 2163.24 196.823 Q2163.24 205.55 2160.16 210.157 Q2157.1 214.74 2151.29 214.74 Q2145.48 214.74 2142.41 210.157 Q2139.35 205.55 2139.35 196.823 Q2139.35 188.073 2142.41 183.49 Q2145.48 178.884 2151.29 178.884 Z" fill="#000000" fill-rule="nonzero" fill-opacity="1" /><path clip-path="url(#clip110)" d="M2181.46 182.587 Q2177.84 182.587 2176.02 186.152 Q2174.21 189.694 2174.21 196.823 Q2174.21 203.93 2176.02 207.495 Q2177.84 211.036 2181.46 211.036 Q2185.09 211.036 2186.9 207.495 Q2188.72 203.93 2188.72 196.823 Q2188.72 189.694 2186.9 186.152 Q2185.09 182.587 2181.46 182.587 M2181.46 178.884 Q2187.27 178.884 2190.32 183.49 Q2193.4 188.073 2193.4 196.823 Q2193.4 205.55 2190.32 210.157 Q2187.27 214.74 2181.46 214.74 Q2175.65 214.74 2172.57 210.157 Q2169.51 205.55 2169.51 196.823 Q2169.51 188.073 2172.57 183.49 Q2175.65 178.884 2181.46 178.884 Z" fill="#000000" fill-rule="nonzero" fill-opacity="1" /><path clip-path="url(#clip110)" d="M2201.62 208.189 L2206.5 208.189 L2206.5 214.069 L2201.62 214.069 L2201.62 208.189 Z" fill="#000000" fill-rule="nonzero" fill-opacity="1" /><path clip-path="url(#clip110)" d="M2226.69 182.587 Q2223.08 182.587 2221.25 186.152 Q2219.44 189.694 2219.44 196.823 Q2219.44 203.93 2221.25 207.495 Q2223.08 211.036 2226.69 211.036 Q2230.32 211.036 2232.13 207.495 Q2233.96 203.93 2233.96 196.823 Q2233.96 189.694 2232.13 186.152 Q2230.32 182.587 2226.69 182.587 M2226.69 178.884 Q2232.5 178.884 2235.55 183.49 Q2238.63 188.073 2238.63 196.823 Q2238.63 205.55 2235.55 210.157 Q2232.5 214.74 2226.69 214.74 Q2220.88 214.74 2217.8 210.157 Q2214.74 205.55 2214.74 196.823 Q2214.74 188.073 2217.8 183.49 Q2220.88 178.884 2226.69 178.884 Z" fill="#000000" fill-rule="nonzero" fill-opacity="1" /><path clip-path="url(#clip110)" d="M2282.87 198.421 L2282.87 214.069 L2278.61 214.069 L2278.61 198.559 Q2278.61 194.879 2277.17 193.05 Q2275.74 191.222 2272.87 191.222 Q2269.42 191.222 2267.43 193.421 Q2265.44 195.62 2265.44 199.416 L2265.44 214.069 L2261.15 214.069 L2261.15 188.143 L2265.44 188.143 L2265.44 192.171 Q2266.96 189.833 2269.03 188.675 Q2271.11 187.518 2273.82 187.518 Q2278.28 187.518 2280.58 190.296 Q2282.87 193.05 2282.87 198.421 Z" fill="#000000" fill-rule="nonzero" fill-opacity="1" /><path clip-path="url(#clip110)" d="M2311.55 193.12 Q2313.15 190.249 2315.37 188.884 Q2317.59 187.518 2320.6 187.518 Q2324.65 187.518 2326.85 190.365 Q2329.05 193.189 2329.05 198.421 L2329.05 214.069 L2324.77 214.069 L2324.77 198.559 Q2324.77 194.833 2323.45 193.027 Q2322.13 191.222 2319.42 191.222 Q2316.11 191.222 2314.19 193.421 Q2312.27 195.62 2312.27 199.416 L2312.27 214.069 L2307.98 214.069 L2307.98 198.559 Q2307.98 194.809 2306.66 193.027 Q2305.34 191.222 2302.59 191.222 Q2299.33 191.222 2297.4 193.444 Q2295.48 195.643 2295.48 199.416 L2295.48 214.069 L2291.2 214.069 L2291.2 188.143 L2295.48 188.143 L2295.48 192.171 Q2296.94 189.786 2298.98 188.652 Q2301.02 187.518 2303.82 187.518 Q2306.64 187.518 2308.61 188.953 Q2310.6 190.388 2311.55 193.12 Z" fill="#000000" fill-rule="nonzero" fill-opacity="1" /></svg>
