<?xml version="1.0" encoding="utf-8"?>
<svg xmlns="http://www.w3.org/2000/svg" xmlns:xlink="http://www.w3.org/1999/xlink" width="600" height="400" viewBox="0 0 2400 1600">
<defs>
  <clipPath id="clip140">
    <rect x="0" y="0" width="2400" height="1600"/>
  </clipPath>
</defs>
<path clip-path="url(#clip140)" d="M0 1600 L2400 1600 L2400 0 L0 0  Z" fill="#ffffff" fill-rule="evenodd" fill-opacity="1"/>
<defs>
  <clipPath id="clip141">
    <rect x="480" y="0" width="1681" height="1600"/>
  </clipPath>
</defs>
<path clip-path="url(#clip140)" d="M265.445 1423.18 L2352.76 1423.18 L2352.76 47.2441 L265.445 47.2441  Z" fill="#ffffff" fill-rule="evenodd" fill-opacity="1"/>
<defs>
  <clipPath id="clip142">
    <rect x="265" y="47" width="2088" height="1377"/>
  </clipPath>
</defs>
<polyline clip-path="url(#clip142)" style="stroke:#000000; stroke-linecap:round; stroke-linejoin:round; stroke-width:2; stroke-opacity:0.1; fill:none" points="578.605,1423.18 578.605,47.2441 "/>
<polyline clip-path="url(#clip142)" style="stroke:#000000; stroke-linecap:round; stroke-linejoin:round; stroke-width:2; stroke-opacity:0.1; fill:none" points="1086.78,1423.18 1086.78,47.2441 "/>
<polyline clip-path="url(#clip142)" style="stroke:#000000; stroke-linecap:round; stroke-linejoin:round; stroke-width:2; stroke-opacity:0.1; fill:none" points="1594.95,1423.18 1594.95,47.2441 "/>
<polyline clip-path="url(#clip142)" style="stroke:#000000; stroke-linecap:round; stroke-linejoin:round; stroke-width:2; stroke-opacity:0.1; fill:none" points="2103.12,1423.18 2103.12,47.2441 "/>
<polyline clip-path="url(#clip140)" style="stroke:#000000; stroke-linecap:round; stroke-linejoin:round; stroke-width:4; stroke-opacity:1; fill:none" points="265.445,1423.18 2352.76,1423.18 "/>
<polyline clip-path="url(#clip140)" style="stroke:#000000; stroke-linecap:round; stroke-linejoin:round; stroke-width:4; stroke-opacity:1; fill:none" points="578.605,1423.18 578.605,1404.28 "/>
<polyline clip-path="url(#clip140)" style="stroke:#000000; stroke-linecap:round; stroke-linejoin:round; stroke-width:4; stroke-opacity:1; fill:none" points="1086.78,1423.18 1086.78,1404.28 "/>
<polyline clip-path="url(#clip140)" style="stroke:#000000; stroke-linecap:round; stroke-linejoin:round; stroke-width:4; stroke-opacity:1; fill:none" points="1594.95,1423.18 1594.95,1404.28 "/>
<polyline clip-path="url(#clip140)" style="stroke:#000000; stroke-linecap:round; stroke-linejoin:round; stroke-width:4; stroke-opacity:1; fill:none" points="2103.12,1423.18 2103.12,1404.28 "/>
<path clip-path="url(#clip140)" d="M553.293 1481.64 L560.931 1481.64 L560.931 1455.28 L552.621 1456.95 L552.621 1452.69 L560.885 1451.02 L565.561 1451.02 L565.561 1481.64 L573.2 1481.64 L573.2 1485.58 L553.293 1485.58 L553.293 1481.64 Z" fill="#000000" fill-rule="nonzero" fill-opacity="1" /><path clip-path="url(#clip140)" d="M592.644 1454.1 Q589.033 1454.1 587.204 1457.66 Q585.399 1461.2 585.399 1468.33 Q585.399 1475.44 587.204 1479.01 Q589.033 1482.55 592.644 1482.55 Q596.278 1482.55 598.084 1479.01 Q599.913 1475.44 599.913 1468.33 Q599.913 1461.2 598.084 1457.66 Q596.278 1454.1 592.644 1454.1 M592.644 1450.39 Q598.454 1450.39 601.51 1455 Q604.589 1459.58 604.589 1468.33 Q604.589 1477.06 601.51 1481.67 Q598.454 1486.25 592.644 1486.25 Q586.834 1486.25 583.755 1481.67 Q580.7 1477.06 580.7 1468.33 Q580.7 1459.58 583.755 1455 Q586.834 1450.39 592.644 1450.39 Z" fill="#000000" fill-rule="nonzero" fill-opacity="1" /><path clip-path="url(#clip140)" d="M1065.55 1481.64 L1081.87 1481.64 L1081.87 1485.58 L1059.92 1485.58 L1059.92 1481.64 Q1062.59 1478.89 1067.17 1474.26 Q1071.78 1469.61 1072.96 1468.27 Q1075.2 1465.74 1076.08 1464.01 Q1076.98 1462.25 1076.98 1460.56 Q1076.98 1457.8 1075.04 1456.07 Q1073.12 1454.33 1070.02 1454.33 Q1067.82 1454.33 1065.36 1455.09 Q1062.93 1455.86 1060.16 1457.41 L1060.16 1452.69 Q1062.98 1451.55 1065.43 1450.97 Q1067.89 1450.39 1069.92 1450.39 Q1075.29 1450.39 1078.49 1453.08 Q1081.68 1455.77 1081.68 1460.26 Q1081.68 1462.39 1080.87 1464.31 Q1080.09 1466.2 1077.98 1468.8 Q1077.4 1469.47 1074.3 1472.69 Q1071.2 1475.88 1065.55 1481.64 Z" fill="#000000" fill-rule="nonzero" fill-opacity="1" /><path clip-path="url(#clip140)" d="M1101.68 1454.1 Q1098.07 1454.1 1096.24 1457.66 Q1094.44 1461.2 1094.44 1468.33 Q1094.44 1475.44 1096.24 1479.01 Q1098.07 1482.55 1101.68 1482.55 Q1105.32 1482.55 1107.12 1479.01 Q1108.95 1475.44 1108.95 1468.33 Q1108.95 1461.2 1107.12 1457.66 Q1105.32 1454.1 1101.68 1454.1 M1101.68 1450.39 Q1107.49 1450.39 1110.55 1455 Q1113.63 1459.58 1113.63 1468.33 Q1113.63 1477.06 1110.55 1481.67 Q1107.49 1486.25 1101.68 1486.25 Q1095.87 1486.25 1092.79 1481.67 Q1089.74 1477.06 1089.74 1468.33 Q1089.74 1459.58 1092.79 1455 Q1095.87 1450.39 1101.68 1450.39 Z" fill="#000000" fill-rule="nonzero" fill-opacity="1" /><path clip-path="url(#clip140)" d="M1583.79 1466.95 Q1587.15 1467.66 1589.02 1469.93 Q1590.92 1472.2 1590.92 1475.53 Q1590.92 1480.65 1587.4 1483.45 Q1583.88 1486.25 1577.4 1486.25 Q1575.22 1486.25 1572.91 1485.81 Q1570.62 1485.39 1568.16 1484.54 L1568.16 1480.02 Q1570.11 1481.16 1572.42 1481.74 Q1574.74 1482.32 1577.26 1482.32 Q1581.66 1482.32 1583.95 1480.58 Q1586.27 1478.84 1586.27 1475.53 Q1586.27 1472.48 1584.11 1470.77 Q1581.98 1469.03 1578.16 1469.03 L1574.14 1469.03 L1574.14 1465.19 L1578.35 1465.19 Q1581.8 1465.19 1583.63 1463.82 Q1585.46 1462.43 1585.46 1459.84 Q1585.46 1457.18 1583.56 1455.77 Q1581.68 1454.33 1578.16 1454.33 Q1576.24 1454.33 1574.04 1454.75 Q1571.84 1455.16 1569.21 1456.04 L1569.21 1451.88 Q1571.87 1451.14 1574.18 1450.77 Q1576.52 1450.39 1578.58 1450.39 Q1583.9 1450.39 1587.01 1452.83 Q1590.11 1455.23 1590.11 1459.35 Q1590.11 1462.22 1588.46 1464.21 Q1586.82 1466.18 1583.79 1466.95 Z" fill="#000000" fill-rule="nonzero" fill-opacity="1" /><path clip-path="url(#clip140)" d="M1609.78 1454.1 Q1606.17 1454.1 1604.34 1457.66 Q1602.54 1461.2 1602.54 1468.33 Q1602.54 1475.44 1604.34 1479.01 Q1606.17 1482.55 1609.78 1482.55 Q1613.42 1482.55 1615.22 1479.01 Q1617.05 1475.44 1617.05 1468.33 Q1617.05 1461.2 1615.22 1457.66 Q1613.42 1454.1 1609.78 1454.1 M1609.78 1450.39 Q1615.59 1450.39 1618.65 1455 Q1621.73 1459.58 1621.73 1468.33 Q1621.73 1477.06 1618.65 1481.67 Q1615.59 1486.25 1609.78 1486.25 Q1603.97 1486.25 1600.9 1481.67 Q1597.84 1477.06 1597.84 1468.33 Q1597.84 1459.58 1600.9 1455 Q1603.97 1450.39 1609.78 1450.39 Z" fill="#000000" fill-rule="nonzero" fill-opacity="1" /><path clip-path="url(#clip140)" d="M2091.29 1455.09 L2079.48 1473.54 L2091.29 1473.54 L2091.29 1455.09 M2090.06 1451.02 L2095.94 1451.02 L2095.94 1473.54 L2100.87 1473.54 L2100.87 1477.43 L2095.94 1477.43 L2095.94 1485.58 L2091.29 1485.58 L2091.29 1477.43 L2075.69 1477.43 L2075.69 1472.92 L2090.06 1451.02 Z" fill="#000000" fill-rule="nonzero" fill-opacity="1" /><path clip-path="url(#clip140)" d="M2118.6 1454.1 Q2114.99 1454.1 2113.16 1457.66 Q2111.36 1461.2 2111.36 1468.33 Q2111.36 1475.44 2113.16 1479.01 Q2114.99 1482.55 2118.6 1482.55 Q2122.24 1482.55 2124.04 1479.01 Q2125.87 1475.44 2125.87 1468.33 Q2125.87 1461.2 2124.04 1457.66 Q2122.24 1454.1 2118.6 1454.1 M2118.6 1450.39 Q2124.41 1450.39 2127.47 1455 Q2130.55 1459.58 2130.55 1468.33 Q2130.55 1477.06 2127.47 1481.67 Q2124.41 1486.25 2118.6 1486.25 Q2112.79 1486.25 2109.71 1481.67 Q2106.66 1477.06 2106.66 1468.33 Q2106.66 1459.58 2109.71 1455 Q2112.79 1450.39 2118.6 1450.39 Z" fill="#000000" fill-rule="nonzero" fill-opacity="1" /><path clip-path="url(#clip140)" d="M890.714 1520.52 L897.144 1520.52 L897.144 1568.04 L890.714 1568.04 L890.714 1520.52 Z" fill="#000000" fill-rule="nonzero" fill-opacity="1" /><path clip-path="url(#clip140)" d="M939.316 1546.53 L939.316 1568.04 L933.46 1568.04 L933.46 1546.72 Q933.46 1541.66 931.487 1539.14 Q929.513 1536.63 925.566 1536.63 Q920.824 1536.63 918.087 1539.65 Q915.35 1542.68 915.35 1547.9 L915.35 1568.04 L909.461 1568.04 L909.461 1532.4 L915.35 1532.4 L915.35 1537.93 Q917.45 1534.72 920.283 1533.13 Q923.148 1531.54 926.871 1531.54 Q933.014 1531.54 936.165 1535.36 Q939.316 1539.14 939.316 1546.53 Z" fill="#000000" fill-rule="nonzero" fill-opacity="1" /><path clip-path="url(#clip140)" d="M976.651 1533.76 L976.651 1539.24 Q974.169 1537.87 971.654 1537.2 Q969.172 1536.5 966.625 1536.5 Q960.928 1536.5 957.777 1540.13 Q954.626 1543.73 954.626 1550.25 Q954.626 1556.78 957.777 1560.4 Q960.928 1564 966.625 1564 Q969.172 1564 971.654 1563.33 Q974.169 1562.63 976.651 1561.26 L976.651 1566.68 Q974.2 1567.82 971.559 1568.39 Q968.949 1568.97 965.989 1568.97 Q957.936 1568.97 953.194 1563.91 Q948.451 1558.85 948.451 1550.25 Q948.451 1541.53 953.225 1536.53 Q958.032 1531.54 966.371 1531.54 Q969.076 1531.54 971.654 1532.11 Q974.232 1532.65 976.651 1533.76 Z" fill="#000000" fill-rule="nonzero" fill-opacity="1" /><path clip-path="url(#clip140)" d="M986.836 1532.4 L992.693 1532.4 L992.693 1568.04 L986.836 1568.04 L986.836 1532.4 M986.836 1518.52 L992.693 1518.52 L992.693 1525.93 L986.836 1525.93 L986.836 1518.52 Z" fill="#000000" fill-rule="nonzero" fill-opacity="1" /><path clip-path="url(#clip140)" d="M1028.4 1537.81 L1028.4 1518.52 L1034.26 1518.52 L1034.26 1568.04 L1028.4 1568.04 L1028.4 1562.7 Q1026.56 1565.88 1023.73 1567.44 Q1020.92 1568.97 1016.98 1568.97 Q1010.52 1568.97 1006.44 1563.81 Q1002.4 1558.65 1002.4 1550.25 Q1002.4 1541.85 1006.44 1536.69 Q1010.52 1531.54 1016.98 1531.54 Q1020.92 1531.54 1023.73 1533.1 Q1026.56 1534.62 1028.4 1537.81 M1008.45 1550.25 Q1008.45 1556.71 1011.09 1560.4 Q1013.76 1564.07 1018.41 1564.07 Q1023.06 1564.07 1025.73 1560.4 Q1028.4 1556.71 1028.4 1550.25 Q1028.4 1543.79 1025.73 1540.13 Q1023.06 1536.44 1018.41 1536.44 Q1013.76 1536.44 1011.09 1540.13 Q1008.45 1543.79 1008.45 1550.25 Z" fill="#000000" fill-rule="nonzero" fill-opacity="1" /><path clip-path="url(#clip140)" d="M1076.82 1548.76 L1076.82 1551.62 L1049.89 1551.62 Q1050.27 1557.67 1053.52 1560.85 Q1056.8 1564 1062.62 1564 Q1065.99 1564 1069.15 1563.17 Q1072.33 1562.35 1075.45 1560.69 L1075.45 1566.23 Q1072.3 1567.57 1068.99 1568.27 Q1065.68 1568.97 1062.27 1568.97 Q1053.74 1568.97 1048.74 1564 Q1043.78 1559.04 1043.78 1550.57 Q1043.78 1541.82 1048.49 1536.69 Q1053.23 1531.54 1061.25 1531.54 Q1068.44 1531.54 1072.61 1536.18 Q1076.82 1540.8 1076.82 1548.76 M1070.96 1547.04 Q1070.9 1542.23 1068.25 1539.37 Q1065.64 1536.5 1061.32 1536.5 Q1056.41 1536.5 1053.45 1539.27 Q1050.53 1542.04 1050.08 1547.07 L1070.96 1547.04 Z" fill="#000000" fill-rule="nonzero" fill-opacity="1" /><path clip-path="url(#clip140)" d="M1116.06 1546.53 L1116.06 1568.04 L1110.2 1568.04 L1110.2 1546.72 Q1110.2 1541.66 1108.23 1539.14 Q1106.26 1536.63 1102.31 1536.63 Q1097.57 1536.63 1094.83 1539.65 Q1092.09 1542.68 1092.09 1547.9 L1092.09 1568.04 L1086.21 1568.04 L1086.21 1532.4 L1092.09 1532.4 L1092.09 1537.93 Q1094.19 1534.72 1097.03 1533.13 Q1099.89 1531.54 1103.62 1531.54 Q1109.76 1531.54 1112.91 1535.36 Q1116.06 1539.14 1116.06 1546.53 Z" fill="#000000" fill-rule="nonzero" fill-opacity="1" /><path clip-path="url(#clip140)" d="M1153.4 1533.76 L1153.4 1539.24 Q1150.91 1537.87 1148.4 1537.2 Q1145.92 1536.5 1143.37 1536.5 Q1137.67 1536.5 1134.52 1540.13 Q1131.37 1543.73 1131.37 1550.25 Q1131.37 1556.78 1134.52 1560.4 Q1137.67 1564 1143.37 1564 Q1145.92 1564 1148.4 1563.33 Q1150.91 1562.63 1153.4 1561.26 L1153.4 1566.68 Q1150.94 1567.82 1148.3 1568.39 Q1145.69 1568.97 1142.73 1568.97 Q1134.68 1568.97 1129.94 1563.91 Q1125.2 1558.85 1125.2 1550.25 Q1125.2 1541.53 1129.97 1536.53 Q1134.78 1531.54 1143.11 1531.54 Q1145.82 1531.54 1148.4 1532.11 Q1150.98 1532.65 1153.4 1533.76 Z" fill="#000000" fill-rule="nonzero" fill-opacity="1" /><path clip-path="url(#clip140)" d="M1194.07 1548.76 L1194.07 1551.62 L1167.15 1551.62 Q1167.53 1557.67 1170.77 1560.85 Q1174.05 1564 1179.88 1564 Q1183.25 1564 1186.4 1563.17 Q1189.58 1562.35 1192.7 1560.69 L1192.7 1566.23 Q1189.55 1567.57 1186.24 1568.27 Q1182.93 1568.97 1179.53 1568.97 Q1171 1568.97 1166 1564 Q1161.03 1559.04 1161.03 1550.57 Q1161.03 1541.82 1165.74 1536.69 Q1170.49 1531.54 1178.51 1531.54 Q1185.7 1531.54 1189.87 1536.18 Q1194.07 1540.8 1194.07 1548.76 M1188.22 1547.04 Q1188.15 1542.23 1185.51 1539.37 Q1182.9 1536.5 1178.57 1536.5 Q1173.67 1536.5 1170.71 1539.27 Q1167.78 1542.04 1167.34 1547.07 L1188.22 1547.04 Z" fill="#000000" fill-rule="nonzero" fill-opacity="1" /><path clip-path="url(#clip140)" d="M1240.61 1550.12 Q1233.51 1550.12 1230.77 1551.75 Q1228.03 1553.37 1228.03 1557.29 Q1228.03 1560.4 1230.07 1562.25 Q1232.14 1564.07 1235.67 1564.07 Q1240.54 1564.07 1243.47 1560.63 Q1246.43 1557.16 1246.43 1551.43 L1246.43 1550.12 L1240.61 1550.12 M1252.29 1547.71 L1252.29 1568.04 L1246.43 1568.04 L1246.43 1562.63 Q1244.42 1565.88 1241.43 1567.44 Q1238.44 1568.97 1234.11 1568.97 Q1228.64 1568.97 1225.39 1565.91 Q1222.18 1562.82 1222.18 1557.67 Q1222.18 1551.65 1226.19 1548.6 Q1230.23 1545.54 1238.22 1545.54 L1246.43 1545.54 L1246.43 1544.97 Q1246.43 1540.93 1243.76 1538.73 Q1241.11 1536.5 1236.31 1536.5 Q1233.25 1536.5 1230.36 1537.23 Q1227.46 1537.97 1224.79 1539.43 L1224.79 1534.02 Q1228 1532.78 1231.02 1532.17 Q1234.05 1531.54 1236.91 1531.54 Q1244.65 1531.54 1248.47 1535.55 Q1252.29 1539.56 1252.29 1547.71 Z" fill="#000000" fill-rule="nonzero" fill-opacity="1" /><path clip-path="url(#clip140)" d="M1293.98 1546.53 L1293.98 1568.04 L1288.13 1568.04 L1288.13 1546.72 Q1288.13 1541.66 1286.15 1539.14 Q1284.18 1536.63 1280.23 1536.63 Q1275.49 1536.63 1272.75 1539.65 Q1270.01 1542.68 1270.01 1547.9 L1270.01 1568.04 L1264.13 1568.04 L1264.13 1532.4 L1270.01 1532.4 L1270.01 1537.93 Q1272.12 1534.72 1274.95 1533.13 Q1277.81 1531.54 1281.54 1531.54 Q1287.68 1531.54 1290.83 1535.36 Q1293.98 1539.14 1293.98 1546.53 Z" fill="#000000" fill-rule="nonzero" fill-opacity="1" /><path clip-path="url(#clip140)" d="M1329.12 1549.81 Q1329.12 1543.44 1326.48 1539.94 Q1323.87 1536.44 1319.13 1536.44 Q1314.42 1536.44 1311.77 1539.94 Q1309.16 1543.44 1309.16 1549.81 Q1309.16 1556.14 1311.77 1559.64 Q1314.42 1563.14 1319.13 1563.14 Q1323.87 1563.14 1326.48 1559.64 Q1329.12 1556.14 1329.12 1549.81 M1334.98 1563.62 Q1334.98 1572.72 1330.93 1577.15 Q1326.89 1581.6 1318.55 1581.6 Q1315.47 1581.6 1312.73 1581.13 Q1309.99 1580.68 1307.41 1579.72 L1307.41 1574.03 Q1309.99 1575.43 1312.51 1576.1 Q1315.02 1576.76 1317.63 1576.76 Q1323.39 1576.76 1326.26 1573.74 Q1329.12 1570.75 1329.12 1564.67 L1329.12 1561.77 Q1327.31 1564.92 1324.47 1566.48 Q1321.64 1568.04 1317.69 1568.04 Q1311.14 1568.04 1307.13 1563.05 Q1303.12 1558.05 1303.12 1549.81 Q1303.12 1541.53 1307.13 1536.53 Q1311.14 1531.54 1317.69 1531.54 Q1321.64 1531.54 1324.47 1533.1 Q1327.31 1534.66 1329.12 1537.81 L1329.12 1532.4 L1334.98 1532.4 L1334.98 1563.62 Z" fill="#000000" fill-rule="nonzero" fill-opacity="1" /><path clip-path="url(#clip140)" d="M1347.04 1518.52 L1352.9 1518.52 L1352.9 1568.04 L1347.04 1568.04 L1347.04 1518.52 Z" fill="#000000" fill-rule="nonzero" fill-opacity="1" /><path clip-path="url(#clip140)" d="M1395.64 1548.76 L1395.64 1551.62 L1368.72 1551.62 Q1369.1 1557.67 1372.34 1560.85 Q1375.62 1564 1381.45 1564 Q1384.82 1564 1387.97 1563.17 Q1391.15 1562.35 1394.27 1560.69 L1394.27 1566.23 Q1391.12 1567.57 1387.81 1568.27 Q1384.5 1568.97 1381.1 1568.97 Q1372.57 1568.97 1367.57 1564 Q1362.6 1559.04 1362.6 1550.57 Q1362.6 1541.82 1367.31 1536.69 Q1372.06 1531.54 1380.08 1531.54 Q1387.27 1531.54 1391.44 1536.18 Q1395.64 1540.8 1395.64 1548.76 M1389.79 1547.04 Q1389.72 1542.23 1387.08 1539.37 Q1384.47 1536.5 1380.14 1536.5 Q1375.24 1536.5 1372.28 1539.27 Q1369.35 1542.04 1368.91 1547.07 L1389.79 1547.04 Z" fill="#000000" fill-rule="nonzero" fill-opacity="1" /><path clip-path="url(#clip140)" d="M1440.04 1518.58 Q1435.78 1525.9 1433.71 1533.06 Q1431.64 1540.23 1431.64 1547.58 Q1431.64 1554.93 1433.71 1562.16 Q1435.81 1569.35 1440.04 1576.64 L1434.95 1576.64 Q1430.18 1569.16 1427.79 1561.93 Q1425.43 1554.71 1425.43 1547.58 Q1425.43 1540.48 1427.79 1533.29 Q1430.14 1526.09 1434.95 1518.58 L1440.04 1518.58 Z" fill="#000000" fill-rule="nonzero" fill-opacity="1" /><path clip-path="url(#clip140)" d="M1474.86 1537.81 L1474.86 1518.52 L1480.72 1518.52 L1480.72 1568.04 L1474.86 1568.04 L1474.86 1562.7 Q1473.02 1565.88 1470.18 1567.44 Q1467.38 1568.97 1463.44 1568.97 Q1456.98 1568.97 1452.9 1563.81 Q1448.86 1558.65 1448.86 1550.25 Q1448.86 1541.85 1452.9 1536.69 Q1456.98 1531.54 1463.44 1531.54 Q1467.38 1531.54 1470.18 1533.1 Q1473.02 1534.62 1474.86 1537.81 M1454.91 1550.25 Q1454.91 1556.71 1457.55 1560.4 Q1460.22 1564.07 1464.87 1564.07 Q1469.52 1564.07 1472.19 1560.4 Q1474.86 1556.71 1474.86 1550.25 Q1474.86 1543.79 1472.19 1540.13 Q1469.52 1536.44 1464.87 1536.44 Q1460.22 1536.44 1457.55 1540.13 Q1454.91 1543.79 1454.91 1550.25 Z" fill="#000000" fill-rule="nonzero" fill-opacity="1" /><path clip-path="url(#clip140)" d="M1523.27 1548.76 L1523.27 1551.62 L1496.35 1551.62 Q1496.73 1557.67 1499.98 1560.85 Q1503.25 1564 1509.08 1564 Q1512.45 1564 1515.6 1563.17 Q1518.79 1562.35 1521.91 1560.69 L1521.91 1566.23 Q1518.75 1567.57 1515.44 1568.27 Q1512.13 1568.97 1508.73 1568.97 Q1500.2 1568.97 1495.2 1564 Q1490.24 1559.04 1490.24 1550.57 Q1490.24 1541.82 1494.95 1536.69 Q1499.69 1531.54 1507.71 1531.54 Q1514.9 1531.54 1519.07 1536.18 Q1523.27 1540.8 1523.27 1548.76 M1517.42 1547.04 Q1517.35 1542.23 1514.71 1539.37 Q1512.1 1536.5 1507.77 1536.5 Q1502.87 1536.5 1499.91 1539.27 Q1496.98 1542.04 1496.54 1547.07 L1517.42 1547.04 Z" fill="#000000" fill-rule="nonzero" fill-opacity="1" /><path clip-path="url(#clip140)" d="M1556.34 1549.81 Q1556.34 1543.44 1553.7 1539.94 Q1551.09 1536.44 1546.35 1536.44 Q1541.64 1536.44 1539 1539.94 Q1536.39 1543.44 1536.39 1549.81 Q1536.39 1556.14 1539 1559.64 Q1541.64 1563.14 1546.35 1563.14 Q1551.09 1563.14 1553.7 1559.64 Q1556.34 1556.14 1556.34 1549.81 M1562.2 1563.62 Q1562.2 1572.72 1558.16 1577.15 Q1554.12 1581.6 1545.78 1581.6 Q1542.69 1581.6 1539.95 1581.13 Q1537.22 1580.68 1534.64 1579.72 L1534.64 1574.03 Q1537.22 1575.43 1539.73 1576.1 Q1542.24 1576.76 1544.85 1576.76 Q1550.62 1576.76 1553.48 1573.74 Q1556.34 1570.75 1556.34 1564.67 L1556.34 1561.77 Q1554.53 1564.92 1551.7 1566.48 Q1548.86 1568.04 1544.92 1568.04 Q1538.36 1568.04 1534.35 1563.05 Q1530.34 1558.05 1530.34 1549.81 Q1530.34 1541.53 1534.35 1536.53 Q1538.36 1531.54 1544.92 1531.54 Q1548.86 1531.54 1551.7 1533.1 Q1554.53 1534.66 1556.34 1537.81 L1556.34 1532.4 L1562.2 1532.4 L1562.2 1563.62 Z" fill="#000000" fill-rule="nonzero" fill-opacity="1" /><path clip-path="url(#clip140)" d="M1594.92 1537.87 Q1593.93 1537.3 1592.76 1537.04 Q1591.61 1536.76 1590.21 1536.76 Q1585.24 1536.76 1582.57 1540 Q1579.93 1543.22 1579.93 1549.27 L1579.93 1568.04 L1574.04 1568.04 L1574.04 1532.4 L1579.93 1532.4 L1579.93 1537.93 Q1581.78 1534.69 1584.74 1533.13 Q1587.7 1531.54 1591.93 1531.54 Q1592.53 1531.54 1593.27 1531.63 Q1594 1531.7 1594.89 1531.85 L1594.92 1537.87 Z" fill="#000000" fill-rule="nonzero" fill-opacity="1" /><path clip-path="url(#clip140)" d="M1630.12 1548.76 L1630.12 1551.62 L1603.2 1551.62 Q1603.58 1557.67 1606.82 1560.85 Q1610.1 1564 1615.93 1564 Q1619.3 1564 1622.45 1563.17 Q1625.64 1562.35 1628.75 1560.69 L1628.75 1566.23 Q1625.6 1567.57 1622.29 1568.27 Q1618.98 1568.97 1615.58 1568.97 Q1607.05 1568.97 1602.05 1564 Q1597.08 1559.04 1597.08 1550.57 Q1597.08 1541.82 1601.8 1536.69 Q1606.54 1531.54 1614.56 1531.54 Q1621.75 1531.54 1625.92 1536.18 Q1630.12 1540.8 1630.12 1548.76 M1624.27 1547.04 Q1624.2 1542.23 1621.56 1539.37 Q1618.95 1536.5 1614.62 1536.5 Q1609.72 1536.5 1606.76 1539.27 Q1603.83 1542.04 1603.39 1547.07 L1624.27 1547.04 Z" fill="#000000" fill-rule="nonzero" fill-opacity="1" /><path clip-path="url(#clip140)" d="M1670.23 1548.76 L1670.23 1551.62 L1643.3 1551.62 Q1643.68 1557.67 1646.93 1560.85 Q1650.21 1564 1656.03 1564 Q1659.41 1564 1662.56 1563.17 Q1665.74 1562.35 1668.86 1560.69 L1668.86 1566.23 Q1665.71 1567.57 1662.4 1568.27 Q1659.09 1568.97 1655.68 1568.97 Q1647.15 1568.97 1642.15 1564 Q1637.19 1559.04 1637.19 1550.57 Q1637.19 1541.82 1641.9 1536.69 Q1646.64 1531.54 1654.66 1531.54 Q1661.86 1531.54 1666.03 1536.18 Q1670.23 1540.8 1670.23 1548.76 M1664.37 1547.04 Q1664.31 1542.23 1661.66 1539.37 Q1659.06 1536.5 1654.73 1536.5 Q1649.82 1536.5 1646.86 1539.27 Q1643.94 1542.04 1643.49 1547.07 L1664.37 1547.04 Z" fill="#000000" fill-rule="nonzero" fill-opacity="1" /><path clip-path="url(#clip140)" d="M1702.56 1533.45 L1702.56 1538.98 Q1700.08 1537.71 1697.41 1537.07 Q1694.73 1536.44 1691.87 1536.44 Q1687.51 1536.44 1685.31 1537.77 Q1683.15 1539.11 1683.15 1541.79 Q1683.15 1543.82 1684.71 1545 Q1686.27 1546.15 1690.98 1547.2 L1692.98 1547.64 Q1699.22 1548.98 1701.83 1551.43 Q1704.47 1553.85 1704.47 1558.21 Q1704.47 1563.17 1700.53 1566.07 Q1696.61 1568.97 1689.74 1568.97 Q1686.87 1568.97 1683.75 1568.39 Q1680.67 1567.85 1677.23 1566.74 L1677.23 1560.69 Q1680.48 1562.38 1683.63 1563.24 Q1686.78 1564.07 1689.87 1564.07 Q1694 1564.07 1696.23 1562.66 Q1698.46 1561.23 1698.46 1558.65 Q1698.46 1556.27 1696.84 1554.99 Q1695.24 1553.72 1689.8 1552.54 L1687.76 1552.07 Q1682.32 1550.92 1679.9 1548.56 Q1677.48 1546.18 1677.48 1542.04 Q1677.48 1537.01 1681.05 1534.27 Q1684.61 1531.54 1691.17 1531.54 Q1694.42 1531.54 1697.28 1532.01 Q1700.15 1532.49 1702.56 1533.45 Z" fill="#000000" fill-rule="nonzero" fill-opacity="1" /><path clip-path="url(#clip140)" d="M1712.88 1518.58 L1717.97 1518.58 Q1722.74 1526.09 1725.1 1533.29 Q1727.49 1540.48 1727.49 1547.58 Q1727.49 1554.71 1725.1 1561.93 Q1722.74 1569.16 1717.97 1576.64 L1712.88 1576.64 Q1717.11 1569.35 1719.18 1562.16 Q1721.28 1554.93 1721.28 1547.58 Q1721.28 1540.23 1719.18 1533.06 Q1717.11 1525.9 1712.88 1518.58 Z" fill="#000000" fill-rule="nonzero" fill-opacity="1" /><polyline clip-path="url(#clip142)" style="stroke:#000000; stroke-linecap:round; stroke-linejoin:round; stroke-width:2; stroke-opacity:0.1; fill:none" points="265.445,1368.43 2352.76,1368.43 "/>
<polyline clip-path="url(#clip142)" style="stroke:#000000; stroke-linecap:round; stroke-linejoin:round; stroke-width:2; stroke-opacity:0.1; fill:none" points="265.445,1160.41 2352.76,1160.41 "/>
<polyline clip-path="url(#clip142)" style="stroke:#000000; stroke-linecap:round; stroke-linejoin:round; stroke-width:2; stroke-opacity:0.1; fill:none" points="265.445,952.386 2352.76,952.386 "/>
<polyline clip-path="url(#clip142)" style="stroke:#000000; stroke-linecap:round; stroke-linejoin:round; stroke-width:2; stroke-opacity:0.1; fill:none" points="265.445,744.365 2352.76,744.365 "/>
<polyline clip-path="url(#clip142)" style="stroke:#000000; stroke-linecap:round; stroke-linejoin:round; stroke-width:2; stroke-opacity:0.1; fill:none" points="265.445,536.344 2352.76,536.344 "/>
<polyline clip-path="url(#clip142)" style="stroke:#000000; stroke-linecap:round; stroke-linejoin:round; stroke-width:2; stroke-opacity:0.1; fill:none" points="265.445,328.322 2352.76,328.322 "/>
<polyline clip-path="url(#clip142)" style="stroke:#000000; stroke-linecap:round; stroke-linejoin:round; stroke-width:2; stroke-opacity:0.1; fill:none" points="265.445,120.301 2352.76,120.301 "/>
<polyline clip-path="url(#clip140)" style="stroke:#000000; stroke-linecap:round; stroke-linejoin:round; stroke-width:4; stroke-opacity:1; fill:none" points="265.445,1423.18 265.445,47.2441 "/>
<polyline clip-path="url(#clip140)" style="stroke:#000000; stroke-linecap:round; stroke-linejoin:round; stroke-width:4; stroke-opacity:1; fill:none" points="265.445,1368.43 284.342,1368.43 "/>
<polyline clip-path="url(#clip140)" style="stroke:#000000; stroke-linecap:round; stroke-linejoin:round; stroke-width:4; stroke-opacity:1; fill:none" points="265.445,1160.41 284.342,1160.41 "/>
<polyline clip-path="url(#clip140)" style="stroke:#000000; stroke-linecap:round; stroke-linejoin:round; stroke-width:4; stroke-opacity:1; fill:none" points="265.445,952.386 284.342,952.386 "/>
<polyline clip-path="url(#clip140)" style="stroke:#000000; stroke-linecap:round; stroke-linejoin:round; stroke-width:4; stroke-opacity:1; fill:none" points="265.445,744.365 284.342,744.365 "/>
<polyline clip-path="url(#clip140)" style="stroke:#000000; stroke-linecap:round; stroke-linejoin:round; stroke-width:4; stroke-opacity:1; fill:none" points="265.445,536.344 284.342,536.344 "/>
<polyline clip-path="url(#clip140)" style="stroke:#000000; stroke-linecap:round; stroke-linejoin:round; stroke-width:4; stroke-opacity:1; fill:none" points="265.445,328.322 284.342,328.322 "/>
<polyline clip-path="url(#clip140)" style="stroke:#000000; stroke-linecap:round; stroke-linejoin:round; stroke-width:4; stroke-opacity:1; fill:none" points="265.445,120.301 284.342,120.301 "/>
<path clip-path="url(#clip140)" d="M131.181 1367.07 Q134.538 1367.79 136.413 1370.06 Q138.311 1372.33 138.311 1375.66 Q138.311 1380.78 134.792 1383.58 Q131.274 1386.38 124.793 1386.38 Q122.617 1386.38 120.302 1385.94 Q118.01 1385.52 115.556 1384.67 L115.556 1380.15 Q117.501 1381.29 119.816 1381.87 Q122.13 1382.44 124.654 1382.44 Q129.052 1382.44 131.343 1380.71 Q133.658 1378.97 133.658 1375.66 Q133.658 1372.61 131.505 1370.89 Q129.376 1369.16 125.556 1369.16 L121.529 1369.16 L121.529 1365.32 L125.742 1365.32 Q129.191 1365.32 131.019 1363.95 Q132.848 1362.56 132.848 1359.97 Q132.848 1357.31 130.95 1355.89 Q129.075 1354.46 125.556 1354.46 Q123.635 1354.46 121.436 1354.88 Q119.237 1355.29 116.598 1356.17 L116.598 1352.01 Q119.26 1351.26 121.575 1350.89 Q123.913 1350.52 125.973 1350.52 Q131.297 1350.52 134.399 1352.95 Q137.501 1355.36 137.501 1359.48 Q137.501 1362.35 135.857 1364.34 Q134.214 1366.31 131.181 1367.07 Z" fill="#000000" fill-rule="nonzero" fill-opacity="1" /><path clip-path="url(#clip140)" d="M151.204 1381.77 L167.524 1381.77 L167.524 1385.71 L145.579 1385.71 L145.579 1381.77 Q148.241 1379.02 152.825 1374.39 Q157.431 1369.74 158.612 1368.39 Q160.857 1365.87 161.737 1364.13 Q162.64 1362.38 162.64 1360.69 Q162.64 1357.93 160.695 1356.19 Q158.774 1354.46 155.672 1354.46 Q153.473 1354.46 151.019 1355.22 Q148.589 1355.99 145.811 1357.54 L145.811 1352.82 Q148.635 1351.68 151.089 1351.1 Q153.542 1350.52 155.579 1350.52 Q160.95 1350.52 164.144 1353.21 Q167.339 1355.89 167.339 1360.38 Q167.339 1362.51 166.528 1364.44 Q165.741 1366.33 163.635 1368.93 Q163.056 1369.6 159.954 1372.82 Q156.853 1376.01 151.204 1381.77 Z" fill="#000000" fill-rule="nonzero" fill-opacity="1" /><path clip-path="url(#clip140)" d="M177.385 1351.15 L195.741 1351.15 L195.741 1355.08 L181.667 1355.08 L181.667 1363.56 Q182.686 1363.21 183.704 1363.05 Q184.723 1362.86 185.741 1362.86 Q191.528 1362.86 194.908 1366.03 Q198.287 1369.2 198.287 1374.62 Q198.287 1380.2 194.815 1383.3 Q191.343 1386.38 185.024 1386.38 Q182.848 1386.38 180.579 1386.01 Q178.334 1385.64 175.926 1384.9 L175.926 1380.2 Q178.01 1381.33 180.232 1381.89 Q182.454 1382.44 184.931 1382.44 Q188.936 1382.44 191.274 1380.34 Q193.612 1378.23 193.612 1374.62 Q193.612 1371.01 191.274 1368.9 Q188.936 1366.8 184.931 1366.8 Q183.056 1366.8 181.181 1367.21 Q179.329 1367.63 177.385 1368.51 L177.385 1351.15 Z" fill="#000000" fill-rule="nonzero" fill-opacity="1" /><path clip-path="url(#clip140)" d="M217.5 1354.23 Q213.889 1354.23 212.061 1357.79 Q210.255 1361.33 210.255 1368.46 Q210.255 1375.57 212.061 1379.13 Q213.889 1382.68 217.5 1382.68 Q221.135 1382.68 222.94 1379.13 Q224.769 1375.57 224.769 1368.46 Q224.769 1361.33 222.94 1357.79 Q221.135 1354.23 217.5 1354.23 M217.5 1350.52 Q223.31 1350.52 226.366 1355.13 Q229.445 1359.71 229.445 1368.46 Q229.445 1377.19 226.366 1381.8 Q223.31 1386.38 217.5 1386.38 Q211.69 1386.38 208.612 1381.8 Q205.556 1377.19 205.556 1368.46 Q205.556 1359.71 208.612 1355.13 Q211.69 1350.52 217.5 1350.52 Z" fill="#000000" fill-rule="nonzero" fill-opacity="1" /><path clip-path="url(#clip140)" d="M131.181 1159.05 Q134.538 1159.77 136.413 1162.04 Q138.311 1164.31 138.311 1167.64 Q138.311 1172.76 134.792 1175.56 Q131.274 1178.36 124.793 1178.36 Q122.617 1178.36 120.302 1177.92 Q118.01 1177.5 115.556 1176.65 L115.556 1172.13 Q117.501 1173.27 119.816 1173.84 Q122.13 1174.42 124.654 1174.42 Q129.052 1174.42 131.343 1172.69 Q133.658 1170.95 133.658 1167.64 Q133.658 1164.59 131.505 1162.87 Q129.376 1161.14 125.556 1161.14 L121.529 1161.14 L121.529 1157.29 L125.742 1157.29 Q129.191 1157.29 131.019 1155.93 Q132.848 1154.54 132.848 1151.95 Q132.848 1149.28 130.95 1147.87 Q129.075 1146.44 125.556 1146.44 Q123.635 1146.44 121.436 1146.85 Q119.237 1147.27 116.598 1148.15 L116.598 1143.98 Q119.26 1143.24 121.575 1142.87 Q123.913 1142.5 125.973 1142.5 Q131.297 1142.5 134.399 1144.93 Q137.501 1147.34 137.501 1151.46 Q137.501 1154.33 135.857 1156.32 Q134.214 1158.29 131.181 1159.05 Z" fill="#000000" fill-rule="nonzero" fill-opacity="1" /><path clip-path="url(#clip140)" d="M147.223 1143.13 L165.579 1143.13 L165.579 1147.06 L151.505 1147.06 L151.505 1155.53 Q152.524 1155.19 153.542 1155.03 Q154.561 1154.84 155.579 1154.84 Q161.366 1154.84 164.746 1158.01 Q168.126 1161.18 168.126 1166.6 Q168.126 1172.18 164.653 1175.28 Q161.181 1178.36 154.862 1178.36 Q152.686 1178.36 150.417 1177.99 Q148.172 1177.62 145.765 1176.88 L145.765 1172.18 Q147.848 1173.31 150.07 1173.87 Q152.292 1174.42 154.769 1174.42 Q158.774 1174.42 161.112 1172.32 Q163.45 1170.21 163.45 1166.6 Q163.45 1162.99 161.112 1160.88 Q158.774 1158.78 154.769 1158.78 Q152.894 1158.78 151.019 1159.19 Q149.167 1159.61 147.223 1160.49 L147.223 1143.13 Z" fill="#000000" fill-rule="nonzero" fill-opacity="1" /><path clip-path="url(#clip140)" d="M187.338 1146.21 Q183.727 1146.21 181.899 1149.77 Q180.093 1153.31 180.093 1160.44 Q180.093 1167.55 181.899 1171.11 Q183.727 1174.66 187.338 1174.66 Q190.973 1174.66 192.778 1171.11 Q194.607 1167.55 194.607 1160.44 Q194.607 1153.31 192.778 1149.77 Q190.973 1146.21 187.338 1146.21 M187.338 1142.5 Q193.149 1142.5 196.204 1147.11 Q199.283 1151.69 199.283 1160.44 Q199.283 1169.17 196.204 1173.78 Q193.149 1178.36 187.338 1178.36 Q181.528 1178.36 178.45 1173.78 Q175.394 1169.17 175.394 1160.44 Q175.394 1151.69 178.45 1147.11 Q181.528 1142.5 187.338 1142.5 Z" fill="#000000" fill-rule="nonzero" fill-opacity="1" /><path clip-path="url(#clip140)" d="M217.5 1146.21 Q213.889 1146.21 212.061 1149.77 Q210.255 1153.31 210.255 1160.44 Q210.255 1167.55 212.061 1171.11 Q213.889 1174.66 217.5 1174.66 Q221.135 1174.66 222.94 1171.11 Q224.769 1167.55 224.769 1160.44 Q224.769 1153.31 222.94 1149.77 Q221.135 1146.21 217.5 1146.21 M217.5 1142.5 Q223.31 1142.5 226.366 1147.11 Q229.445 1151.69 229.445 1160.44 Q229.445 1169.17 226.366 1173.78 Q223.31 1178.36 217.5 1178.36 Q211.69 1178.36 208.612 1173.78 Q205.556 1169.17 205.556 1160.44 Q205.556 1151.69 208.612 1147.11 Q211.69 1142.5 217.5 1142.5 Z" fill="#000000" fill-rule="nonzero" fill-opacity="1" /><path clip-path="url(#clip140)" d="M131.181 951.032 Q134.538 951.75 136.413 954.018 Q138.311 956.287 138.311 959.62 Q138.311 964.736 134.792 967.537 Q131.274 970.337 124.793 970.337 Q122.617 970.337 120.302 969.898 Q118.01 969.481 115.556 968.624 L115.556 964.111 Q117.501 965.245 119.816 965.824 Q122.13 966.402 124.654 966.402 Q129.052 966.402 131.343 964.666 Q133.658 962.93 133.658 959.62 Q133.658 956.564 131.505 954.851 Q129.376 953.115 125.556 953.115 L121.529 953.115 L121.529 949.273 L125.742 949.273 Q129.191 949.273 131.019 947.907 Q132.848 946.518 132.848 943.926 Q132.848 941.264 130.95 939.851 Q129.075 938.416 125.556 938.416 Q123.635 938.416 121.436 938.833 Q119.237 939.25 116.598 940.129 L116.598 935.963 Q119.26 935.222 121.575 934.852 Q123.913 934.481 125.973 934.481 Q131.297 934.481 134.399 936.912 Q137.501 939.319 137.501 943.439 Q137.501 946.31 135.857 948.301 Q134.214 950.268 131.181 951.032 Z" fill="#000000" fill-rule="nonzero" fill-opacity="1" /><path clip-path="url(#clip140)" d="M145.996 935.106 L168.218 935.106 L168.218 937.097 L155.672 969.666 L150.788 969.666 L162.593 939.041 L145.996 939.041 L145.996 935.106 Z" fill="#000000" fill-rule="nonzero" fill-opacity="1" /><path clip-path="url(#clip140)" d="M177.385 935.106 L195.741 935.106 L195.741 939.041 L181.667 939.041 L181.667 947.513 Q182.686 947.166 183.704 947.004 Q184.723 946.819 185.741 946.819 Q191.528 946.819 194.908 949.99 Q198.287 953.162 198.287 958.578 Q198.287 964.157 194.815 967.259 Q191.343 970.337 185.024 970.337 Q182.848 970.337 180.579 969.967 Q178.334 969.597 175.926 968.856 L175.926 964.157 Q178.01 965.291 180.232 965.847 Q182.454 966.402 184.931 966.402 Q188.936 966.402 191.274 964.296 Q193.612 962.189 193.612 958.578 Q193.612 954.967 191.274 952.861 Q188.936 950.754 184.931 950.754 Q183.056 950.754 181.181 951.171 Q179.329 951.588 177.385 952.467 L177.385 935.106 Z" fill="#000000" fill-rule="nonzero" fill-opacity="1" /><path clip-path="url(#clip140)" d="M217.5 938.185 Q213.889 938.185 212.061 941.75 Q210.255 945.291 210.255 952.421 Q210.255 959.527 212.061 963.092 Q213.889 966.634 217.5 966.634 Q221.135 966.634 222.94 963.092 Q224.769 959.527 224.769 952.421 Q224.769 945.291 222.94 941.75 Q221.135 938.185 217.5 938.185 M217.5 934.481 Q223.31 934.481 226.366 939.088 Q229.445 943.671 229.445 952.421 Q229.445 961.148 226.366 965.754 Q223.31 970.337 217.5 970.337 Q211.69 970.337 208.612 965.754 Q205.556 961.148 205.556 952.421 Q205.556 943.671 208.612 939.088 Q211.69 934.481 217.5 934.481 Z" fill="#000000" fill-rule="nonzero" fill-opacity="1" /><path clip-path="url(#clip140)" d="M129.862 731.159 L118.056 749.608 L129.862 749.608 L129.862 731.159 M128.635 727.085 L134.515 727.085 L134.515 749.608 L139.445 749.608 L139.445 753.497 L134.515 753.497 L134.515 761.645 L129.862 761.645 L129.862 753.497 L114.26 753.497 L114.26 748.983 L128.635 727.085 Z" fill="#000000" fill-rule="nonzero" fill-opacity="1" /><path clip-path="url(#clip140)" d="M157.177 730.164 Q153.566 730.164 151.737 733.728 Q149.931 737.27 149.931 744.4 Q149.931 751.506 151.737 755.071 Q153.566 758.613 157.177 758.613 Q160.811 758.613 162.616 755.071 Q164.445 751.506 164.445 744.4 Q164.445 737.27 162.616 733.728 Q160.811 730.164 157.177 730.164 M157.177 726.46 Q162.987 726.46 166.042 731.066 Q169.121 735.65 169.121 744.4 Q169.121 753.126 166.042 757.733 Q162.987 762.316 157.177 762.316 Q151.366 762.316 148.288 757.733 Q145.232 753.126 145.232 744.4 Q145.232 735.65 148.288 731.066 Q151.366 726.46 157.177 726.46 Z" fill="#000000" fill-rule="nonzero" fill-opacity="1" /><path clip-path="url(#clip140)" d="M187.338 730.164 Q183.727 730.164 181.899 733.728 Q180.093 737.27 180.093 744.4 Q180.093 751.506 181.899 755.071 Q183.727 758.613 187.338 758.613 Q190.973 758.613 192.778 755.071 Q194.607 751.506 194.607 744.4 Q194.607 737.27 192.778 733.728 Q190.973 730.164 187.338 730.164 M187.338 726.46 Q193.149 726.46 196.204 731.066 Q199.283 735.65 199.283 744.4 Q199.283 753.126 196.204 757.733 Q193.149 762.316 187.338 762.316 Q181.528 762.316 178.45 757.733 Q175.394 753.126 175.394 744.4 Q175.394 735.65 178.45 731.066 Q181.528 726.46 187.338 726.46 Z" fill="#000000" fill-rule="nonzero" fill-opacity="1" /><path clip-path="url(#clip140)" d="M217.5 730.164 Q213.889 730.164 212.061 733.728 Q210.255 737.27 210.255 744.4 Q210.255 751.506 212.061 755.071 Q213.889 758.613 217.5 758.613 Q221.135 758.613 222.94 755.071 Q224.769 751.506 224.769 744.4 Q224.769 737.27 222.94 733.728 Q221.135 730.164 217.5 730.164 M217.5 726.46 Q223.31 726.46 226.366 731.066 Q229.445 735.65 229.445 744.4 Q229.445 753.126 226.366 757.733 Q223.31 762.316 217.5 762.316 Q211.69 762.316 208.612 757.733 Q205.556 753.126 205.556 744.4 Q205.556 735.65 208.612 731.066 Q211.69 726.46 217.5 726.46 Z" fill="#000000" fill-rule="nonzero" fill-opacity="1" /><path clip-path="url(#clip140)" d="M129.862 523.138 L118.056 541.587 L129.862 541.587 L129.862 523.138 M128.635 519.064 L134.515 519.064 L134.515 541.587 L139.445 541.587 L139.445 545.476 L134.515 545.476 L134.515 553.624 L129.862 553.624 L129.862 545.476 L114.26 545.476 L114.26 540.962 L128.635 519.064 Z" fill="#000000" fill-rule="nonzero" fill-opacity="1" /><path clip-path="url(#clip140)" d="M151.204 549.688 L167.524 549.688 L167.524 553.624 L145.579 553.624 L145.579 549.688 Q148.241 546.934 152.825 542.304 Q157.431 537.652 158.612 536.309 Q160.857 533.786 161.737 532.05 Q162.64 530.29 162.64 528.601 Q162.64 525.846 160.695 524.11 Q158.774 522.374 155.672 522.374 Q153.473 522.374 151.019 523.138 Q148.589 523.902 145.811 525.453 L145.811 520.73 Q148.635 519.596 151.089 519.017 Q153.542 518.439 155.579 518.439 Q160.95 518.439 164.144 521.124 Q167.339 523.809 167.339 528.3 Q167.339 530.429 166.528 532.351 Q165.741 534.249 163.635 536.841 Q163.056 537.513 159.954 540.73 Q156.853 543.925 151.204 549.688 Z" fill="#000000" fill-rule="nonzero" fill-opacity="1" /><path clip-path="url(#clip140)" d="M177.385 519.064 L195.741 519.064 L195.741 522.999 L181.667 522.999 L181.667 531.471 Q182.686 531.124 183.704 530.962 Q184.723 530.777 185.741 530.777 Q191.528 530.777 194.908 533.948 Q198.287 537.119 198.287 542.536 Q198.287 548.114 194.815 551.216 Q191.343 554.295 185.024 554.295 Q182.848 554.295 180.579 553.925 Q178.334 553.554 175.926 552.813 L175.926 548.114 Q178.01 549.249 180.232 549.804 Q182.454 550.36 184.931 550.36 Q188.936 550.36 191.274 548.253 Q193.612 546.147 193.612 542.536 Q193.612 538.925 191.274 536.818 Q188.936 534.712 184.931 534.712 Q183.056 534.712 181.181 535.128 Q179.329 535.545 177.385 536.425 L177.385 519.064 Z" fill="#000000" fill-rule="nonzero" fill-opacity="1" /><path clip-path="url(#clip140)" d="M217.5 522.142 Q213.889 522.142 212.061 525.707 Q210.255 529.249 210.255 536.378 Q210.255 543.485 212.061 547.05 Q213.889 550.591 217.5 550.591 Q221.135 550.591 222.94 547.05 Q224.769 543.485 224.769 536.378 Q224.769 529.249 222.94 525.707 Q221.135 522.142 217.5 522.142 M217.5 518.439 Q223.31 518.439 226.366 523.045 Q229.445 527.628 229.445 536.378 Q229.445 545.105 226.366 549.712 Q223.31 554.295 217.5 554.295 Q211.69 554.295 208.612 549.712 Q205.556 545.105 205.556 536.378 Q205.556 527.628 208.612 523.045 Q211.69 518.439 217.5 518.439 Z" fill="#000000" fill-rule="nonzero" fill-opacity="1" /><path clip-path="url(#clip140)" d="M129.862 315.116 L118.056 333.565 L129.862 333.565 L129.862 315.116 M128.635 311.042 L134.515 311.042 L134.515 333.565 L139.445 333.565 L139.445 337.454 L134.515 337.454 L134.515 345.602 L129.862 345.602 L129.862 337.454 L114.26 337.454 L114.26 332.94 L128.635 311.042 Z" fill="#000000" fill-rule="nonzero" fill-opacity="1" /><path clip-path="url(#clip140)" d="M147.223 311.042 L165.579 311.042 L165.579 314.978 L151.505 314.978 L151.505 323.45 Q152.524 323.103 153.542 322.94 Q154.561 322.755 155.579 322.755 Q161.366 322.755 164.746 325.927 Q168.126 329.098 168.126 334.515 Q168.126 340.093 164.653 343.195 Q161.181 346.274 154.862 346.274 Q152.686 346.274 150.417 345.903 Q148.172 345.533 145.765 344.792 L145.765 340.093 Q147.848 341.227 150.07 341.783 Q152.292 342.339 154.769 342.339 Q158.774 342.339 161.112 340.232 Q163.45 338.126 163.45 334.515 Q163.45 330.903 161.112 328.797 Q158.774 326.69 154.769 326.69 Q152.894 326.69 151.019 327.107 Q149.167 327.524 147.223 328.403 L147.223 311.042 Z" fill="#000000" fill-rule="nonzero" fill-opacity="1" /><path clip-path="url(#clip140)" d="M187.338 314.121 Q183.727 314.121 181.899 317.686 Q180.093 321.228 180.093 328.357 Q180.093 335.464 181.899 339.028 Q183.727 342.57 187.338 342.57 Q190.973 342.57 192.778 339.028 Q194.607 335.464 194.607 328.357 Q194.607 321.228 192.778 317.686 Q190.973 314.121 187.338 314.121 M187.338 310.417 Q193.149 310.417 196.204 315.024 Q199.283 319.607 199.283 328.357 Q199.283 337.084 196.204 341.69 Q193.149 346.274 187.338 346.274 Q181.528 346.274 178.45 341.69 Q175.394 337.084 175.394 328.357 Q175.394 319.607 178.45 315.024 Q181.528 310.417 187.338 310.417 Z" fill="#000000" fill-rule="nonzero" fill-opacity="1" /><path clip-path="url(#clip140)" d="M217.5 314.121 Q213.889 314.121 212.061 317.686 Q210.255 321.228 210.255 328.357 Q210.255 335.464 212.061 339.028 Q213.889 342.57 217.5 342.57 Q221.135 342.57 222.94 339.028 Q224.769 335.464 224.769 328.357 Q224.769 321.228 222.94 317.686 Q221.135 314.121 217.5 314.121 M217.5 310.417 Q223.31 310.417 226.366 315.024 Q229.445 319.607 229.445 328.357 Q229.445 337.084 226.366 341.69 Q223.31 346.274 217.5 346.274 Q211.69 346.274 208.612 341.69 Q205.556 337.084 205.556 328.357 Q205.556 319.607 208.612 315.024 Q211.69 310.417 217.5 310.417 Z" fill="#000000" fill-rule="nonzero" fill-opacity="1" /><path clip-path="url(#clip140)" d="M129.862 107.095 L118.056 125.544 L129.862 125.544 L129.862 107.095 M128.635 103.021 L134.515 103.021 L134.515 125.544 L139.445 125.544 L139.445 129.433 L134.515 129.433 L134.515 137.581 L129.862 137.581 L129.862 129.433 L114.26 129.433 L114.26 124.919 L128.635 103.021 Z" fill="#000000" fill-rule="nonzero" fill-opacity="1" /><path clip-path="url(#clip140)" d="M145.996 103.021 L168.218 103.021 L168.218 105.012 L155.672 137.581 L150.788 137.581 L162.593 106.956 L145.996 106.956 L145.996 103.021 Z" fill="#000000" fill-rule="nonzero" fill-opacity="1" /><path clip-path="url(#clip140)" d="M177.385 103.021 L195.741 103.021 L195.741 106.956 L181.667 106.956 L181.667 115.428 Q182.686 115.081 183.704 114.919 Q184.723 114.734 185.741 114.734 Q191.528 114.734 194.908 117.905 Q198.287 121.077 198.287 126.493 Q198.287 132.072 194.815 135.174 Q191.343 138.252 185.024 138.252 Q182.848 138.252 180.579 137.882 Q178.334 137.512 175.926 136.771 L175.926 132.072 Q178.01 133.206 180.232 133.762 Q182.454 134.317 184.931 134.317 Q188.936 134.317 191.274 132.211 Q193.612 130.104 193.612 126.493 Q193.612 122.882 191.274 120.776 Q188.936 118.669 184.931 118.669 Q183.056 118.669 181.181 119.086 Q179.329 119.503 177.385 120.382 L177.385 103.021 Z" fill="#000000" fill-rule="nonzero" fill-opacity="1" /><path clip-path="url(#clip140)" d="M217.5 106.1 Q213.889 106.1 212.061 109.665 Q210.255 113.206 210.255 120.336 Q210.255 127.442 212.061 131.007 Q213.889 134.549 217.5 134.549 Q221.135 134.549 222.94 131.007 Q224.769 127.442 224.769 120.336 Q224.769 113.206 222.94 109.665 Q221.135 106.1 217.5 106.1 M217.5 102.396 Q223.31 102.396 226.366 107.003 Q229.445 111.586 229.445 120.336 Q229.445 129.063 226.366 133.669 Q223.31 138.252 217.5 138.252 Q211.69 138.252 208.612 133.669 Q205.556 129.063 205.556 120.336 Q205.556 111.586 208.612 107.003 Q211.69 102.396 217.5 102.396 Z" fill="#000000" fill-rule="nonzero" fill-opacity="1" /><path clip-path="url(#clip140)" d="M16.4842 973.162 L16.4842 966.733 L64.0042 966.733 L64.0042 973.162 L16.4842 973.162 Z" fill="#000000" fill-rule="nonzero" fill-opacity="1" /><path clip-path="url(#clip140)" d="M42.4881 924.56 L64.0042 924.56 L64.0042 930.416 L42.679 930.416 Q37.6183 930.416 35.1038 932.39 Q32.5894 934.363 32.5894 938.31 Q32.5894 943.052 35.6131 945.79 Q38.6368 948.527 43.8567 948.527 L64.0042 948.527 L64.0042 954.415 L28.3562 954.415 L28.3562 948.527 L33.8944 948.527 Q30.6797 946.426 29.0883 943.593 Q27.4968 940.729 27.4968 937.005 Q27.4968 930.862 31.3163 927.711 Q35.1038 924.56 42.4881 924.56 Z" fill="#000000" fill-rule="nonzero" fill-opacity="1" /><path clip-path="url(#clip140)" d="M18.2347 907.086 L28.3562 907.086 L28.3562 895.023 L32.9077 895.023 L32.9077 907.086 L52.2594 907.086 Q56.6199 907.086 57.8613 905.908 Q59.1026 904.699 59.1026 901.039 L59.1026 895.023 L64.0042 895.023 L64.0042 901.039 Q64.0042 907.818 61.4897 910.396 Q58.9434 912.974 52.2594 912.974 L32.9077 912.974 L32.9077 917.271 L28.3562 917.271 L28.3562 912.974 L18.2347 912.974 L18.2347 907.086 Z" fill="#000000" fill-rule="nonzero" fill-opacity="1" /><path clip-path="url(#clip140)" d="M44.7161 856.829 L47.5806 856.829 L47.5806 883.756 Q53.6281 883.374 56.8109 880.127 Q59.9619 876.849 59.9619 871.024 Q59.9619 867.65 59.1344 864.499 Q58.3069 861.317 56.6518 858.197 L62.1899 858.197 Q63.5267 861.348 64.227 864.659 Q64.9272 867.969 64.9272 871.374 Q64.9272 879.904 59.9619 884.902 Q54.9967 889.867 46.5303 889.867 Q37.7774 889.867 32.6531 885.156 Q27.4968 880.414 27.4968 872.393 Q27.4968 865.2 32.1438 861.03 Q36.7589 856.829 44.7161 856.829 M42.9973 862.685 Q38.1912 862.749 35.3266 865.391 Q32.4621 868.001 32.4621 872.329 Q32.4621 877.231 35.2312 880.191 Q38.0002 883.119 43.0292 883.565 L42.9973 862.685 Z" fill="#000000" fill-rule="nonzero" fill-opacity="1" /><path clip-path="url(#clip140)" d="M42.4881 817.584 L64.0042 817.584 L64.0042 823.441 L42.679 823.441 Q37.6183 823.441 35.1038 825.414 Q32.5894 827.387 32.5894 831.334 Q32.5894 836.077 35.6131 838.814 Q38.6368 841.551 43.8567 841.551 L64.0042 841.551 L64.0042 847.439 L28.3562 847.439 L28.3562 841.551 L33.8944 841.551 Q30.6797 839.45 29.0883 836.618 Q27.4968 833.753 27.4968 830.029 Q27.4968 823.886 31.3163 820.735 Q35.1038 817.584 42.4881 817.584 Z" fill="#000000" fill-rule="nonzero" fill-opacity="1" /><path clip-path="url(#clip140)" d="M29.4065 783.178 L34.9447 783.178 Q33.6716 785.66 33.035 788.334 Q32.3984 791.007 32.3984 793.872 Q32.3984 798.232 33.7352 800.429 Q35.072 802.593 37.7456 802.593 Q39.7826 802.593 40.9603 801.033 Q42.1061 799.474 43.1565 794.763 L43.6021 792.758 Q44.9389 786.52 47.3897 783.91 Q49.8086 781.268 54.1691 781.268 Q59.1344 781.268 62.0308 785.215 Q64.9272 789.13 64.9272 796.004 Q64.9272 798.869 64.3543 801.988 Q63.8132 805.076 62.6992 808.513 L56.6518 808.513 Q58.3387 805.267 59.198 802.116 Q60.0256 798.965 60.0256 795.877 Q60.0256 791.739 58.6251 789.511 Q57.1929 787.283 54.6147 787.283 Q52.2276 787.283 50.9545 788.907 Q49.6813 790.498 48.5037 795.941 L48.0262 797.978 Q46.8804 803.421 44.5251 805.839 Q42.138 808.258 38.0002 808.258 Q32.9713 808.258 30.2341 804.694 Q27.4968 801.129 27.4968 794.572 Q27.4968 791.326 27.9743 788.461 Q28.4517 785.597 29.4065 783.178 Z" fill="#000000" fill-rule="nonzero" fill-opacity="1" /><path clip-path="url(#clip140)" d="M28.3562 771.942 L28.3562 766.086 L64.0042 766.086 L64.0042 771.942 L28.3562 771.942 M14.479 771.942 L14.479 766.086 L21.895 766.086 L21.895 771.942 L14.479 771.942 Z" fill="#000000" fill-rule="nonzero" fill-opacity="1" /><path clip-path="url(#clip140)" d="M18.2347 748.039 L28.3562 748.039 L28.3562 735.976 L32.9077 735.976 L32.9077 748.039 L52.2594 748.039 Q56.6199 748.039 57.8613 746.861 Q59.1026 745.652 59.1026 741.991 L59.1026 735.976 L64.0042 735.976 L64.0042 741.991 Q64.0042 748.771 61.4897 751.349 Q58.9434 753.927 52.2594 753.927 L32.9077 753.927 L32.9077 758.224 L28.3562 758.224 L28.3562 753.927 L18.2347 753.927 L18.2347 748.039 Z" fill="#000000" fill-rule="nonzero" fill-opacity="1" /><path clip-path="url(#clip140)" d="M67.3143 713.441 Q73.68 715.924 75.6216 718.279 Q77.5631 720.635 77.5631 724.581 L77.5631 729.26 L72.6615 729.26 L72.6615 725.823 Q72.6615 723.404 71.5157 722.067 Q70.3699 720.73 66.1048 719.107 L63.4312 718.056 L28.3562 732.475 L28.3562 726.268 L56.238 715.128 L28.3562 703.988 L28.3562 697.782 L67.3143 713.441 Z" fill="#000000" fill-rule="nonzero" fill-opacity="1" /><path clip-path="url(#clip140)" d="M14.5426 654.909 Q21.8632 659.174 29.0246 661.242 Q36.186 663.311 43.5384 663.311 Q50.8908 663.311 58.1159 661.242 Q65.3091 659.142 72.5979 654.909 L72.5979 660.001 Q65.1182 664.775 57.8931 667.163 Q50.668 669.518 43.5384 669.518 Q36.4406 669.518 29.2474 667.163 Q22.0542 664.807 14.5426 660.001 L14.5426 654.909 Z" fill="#000000" fill-rule="nonzero" fill-opacity="1" /><path clip-path="url(#clip140)" d="M22.818 627.409 L46.4666 636.13 L46.4666 618.656 L22.818 627.409 M16.4842 631.037 L16.4842 623.748 L64.0042 605.638 L64.0042 612.322 L51.8138 616.651 L51.8138 638.071 L64.0042 642.4 L64.0042 649.179 L16.4842 631.037 Z" fill="#000000" fill-rule="nonzero" fill-opacity="1" /><path clip-path="url(#clip140)" d="M55.9197 599.272 L55.9197 592.556 L64.0042 592.556 L64.0042 599.272 L55.9197 599.272 Z" fill="#000000" fill-rule="nonzero" fill-opacity="1" /><path clip-path="url(#clip140)" d="M16.4842 579.857 L16.4842 573.396 L45.3526 573.396 Q52.9915 573.396 56.3653 570.627 Q59.7073 567.858 59.7073 561.651 Q59.7073 555.476 56.3653 552.707 Q52.9915 549.938 45.3526 549.938 L16.4842 549.938 L16.4842 543.477 L46.1484 543.477 Q55.4423 543.477 60.1847 548.092 Q64.9272 552.675 64.9272 561.651 Q64.9272 570.658 60.1847 575.274 Q55.4423 579.857 46.1484 579.857 L16.4842 579.857 Z" fill="#000000" fill-rule="nonzero" fill-opacity="1" /><path clip-path="url(#clip140)" d="M55.9197 530.841 L55.9197 524.125 L64.0042 524.125 L64.0042 530.841 L55.9197 530.841 Z" fill="#000000" fill-rule="nonzero" fill-opacity="1" /><path clip-path="url(#clip140)" d="M14.5426 511.871 L14.5426 506.779 Q22.0542 502.004 29.2474 499.649 Q36.4406 497.262 43.5384 497.262 Q50.668 497.262 57.8931 499.649 Q65.1182 502.004 72.5979 506.779 L72.5979 511.871 Q65.3091 507.638 58.1159 505.569 Q50.8908 503.468 43.5384 503.468 Q36.186 503.468 29.0246 505.569 Q21.8632 507.638 14.5426 511.871 Z" fill="#000000" fill-rule="nonzero" fill-opacity="1" /><circle clip-path="url(#clip142)" cx="324.52" cy="1125.46" r="14.4" fill="#1f77b4" fill-rule="evenodd" fill-opacity="1" stroke="#000000" stroke-opacity="1" stroke-width="3.2"/>
<circle clip-path="url(#clip142)" cx="388.041" cy="1077.2" r="14.4" fill="#1f77b4" fill-rule="evenodd" fill-opacity="1" stroke="#000000" stroke-opacity="1" stroke-width="3.2"/>
<circle clip-path="url(#clip142)" cx="451.562" cy="1260.26" r="14.4" fill="#1f77b4" fill-rule="evenodd" fill-opacity="1" stroke="#000000" stroke-opacity="1" stroke-width="3.2"/>
<circle clip-path="url(#clip142)" cx="515.084" cy="1218.65" r="14.4" fill="#1f77b4" fill-rule="evenodd" fill-opacity="1" stroke="#000000" stroke-opacity="1" stroke-width="3.2"/>
<circle clip-path="url(#clip142)" cx="578.605" cy="1358.44" r="14.4" fill="#1f77b4" fill-rule="evenodd" fill-opacity="1" stroke="#000000" stroke-opacity="1" stroke-width="3.2"/>
<circle clip-path="url(#clip142)" cx="642.126" cy="1296.87" r="14.4" fill="#1f77b4" fill-rule="evenodd" fill-opacity="1" stroke="#000000" stroke-opacity="1" stroke-width="3.2"/>
<circle clip-path="url(#clip142)" cx="705.648" cy="1350.95" r="14.4" fill="#1f77b4" fill-rule="evenodd" fill-opacity="1" stroke="#000000" stroke-opacity="1" stroke-width="3.2"/>
<circle clip-path="url(#clip142)" cx="769.169" cy="1384.24" r="14.4" fill="#1f77b4" fill-rule="evenodd" fill-opacity="1" stroke="#000000" stroke-opacity="1" stroke-width="3.2"/>
<circle clip-path="url(#clip142)" cx="832.69" cy="1280.23" r="14.4" fill="#1f77b4" fill-rule="evenodd" fill-opacity="1" stroke="#000000" stroke-opacity="1" stroke-width="3.2"/>
<circle clip-path="url(#clip142)" cx="896.212" cy="1172.06" r="14.4" fill="#1f77b4" fill-rule="evenodd" fill-opacity="1" stroke="#000000" stroke-opacity="1" stroke-width="3.2"/>
<circle clip-path="url(#clip142)" cx="959.733" cy="988.998" r="14.4" fill="#1f77b4" fill-rule="evenodd" fill-opacity="1" stroke="#000000" stroke-opacity="1" stroke-width="3.2"/>
<circle clip-path="url(#clip142)" cx="1023.25" cy="830.902" r="14.4" fill="#1f77b4" fill-rule="evenodd" fill-opacity="1" stroke="#000000" stroke-opacity="1" stroke-width="3.2"/>
<circle clip-path="url(#clip142)" cx="1086.78" cy="655.332" r="14.4" fill="#1f77b4" fill-rule="evenodd" fill-opacity="1" stroke="#000000" stroke-opacity="1" stroke-width="3.2"/>
<circle clip-path="url(#clip142)" cx="1150.3" cy="448.975" r="14.4" fill="#1f77b4" fill-rule="evenodd" fill-opacity="1" stroke="#000000" stroke-opacity="1" stroke-width="3.2"/>
<circle clip-path="url(#clip142)" cx="1213.82" cy="253.435" r="14.4" fill="#1f77b4" fill-rule="evenodd" fill-opacity="1" stroke="#000000" stroke-opacity="1" stroke-width="3.2"/>
<circle clip-path="url(#clip142)" cx="1277.34" cy="86.1857" r="14.4" fill="#1f77b4" fill-rule="evenodd" fill-opacity="1" stroke="#000000" stroke-opacity="1" stroke-width="3.2"/>
<circle clip-path="url(#clip142)" cx="1340.86" cy="205.174" r="14.4" fill="#1f77b4" fill-rule="evenodd" fill-opacity="1" stroke="#000000" stroke-opacity="1" stroke-width="3.2"/>
<circle clip-path="url(#clip142)" cx="1404.38" cy="347.46" r="14.4" fill="#1f77b4" fill-rule="evenodd" fill-opacity="1" stroke="#000000" stroke-opacity="1" stroke-width="3.2"/>
<circle clip-path="url(#clip142)" cx="1467.9" cy="660.324" r="14.4" fill="#1f77b4" fill-rule="evenodd" fill-opacity="1" stroke="#000000" stroke-opacity="1" stroke-width="3.2"/>
<circle clip-path="url(#clip142)" cx="1531.42" cy="765.999" r="14.4" fill="#1f77b4" fill-rule="evenodd" fill-opacity="1" stroke="#000000" stroke-opacity="1" stroke-width="3.2"/>
<circle clip-path="url(#clip142)" cx="1594.95" cy="1117.14" r="14.4" fill="#1f77b4" fill-rule="evenodd" fill-opacity="1" stroke="#000000" stroke-opacity="1" stroke-width="3.2"/>
<circle clip-path="url(#clip142)" cx="1658.47" cy="1228.64" r="14.4" fill="#1f77b4" fill-rule="evenodd" fill-opacity="1" stroke="#000000" stroke-opacity="1" stroke-width="3.2"/>
<circle clip-path="url(#clip142)" cx="1721.99" cy="1252.77" r="14.4" fill="#1f77b4" fill-rule="evenodd" fill-opacity="1" stroke="#000000" stroke-opacity="1" stroke-width="3.2"/>
<circle clip-path="url(#clip142)" cx="1785.51" cy="1249.44" r="14.4" fill="#1f77b4" fill-rule="evenodd" fill-opacity="1" stroke="#000000" stroke-opacity="1" stroke-width="3.2"/>
<circle clip-path="url(#clip142)" cx="1849.03" cy="1000.65" r="14.4" fill="#1f77b4" fill-rule="evenodd" fill-opacity="1" stroke="#000000" stroke-opacity="1" stroke-width="3.2"/>
<circle clip-path="url(#clip142)" cx="1912.55" cy="673.638" r="14.4" fill="#1f77b4" fill-rule="evenodd" fill-opacity="1" stroke="#000000" stroke-opacity="1" stroke-width="3.2"/>
<circle clip-path="url(#clip142)" cx="1976.07" cy="419.852" r="14.4" fill="#1f77b4" fill-rule="evenodd" fill-opacity="1" stroke="#000000" stroke-opacity="1" stroke-width="3.2"/>
<circle clip-path="url(#clip142)" cx="2039.6" cy="453.135" r="14.4" fill="#1f77b4" fill-rule="evenodd" fill-opacity="1" stroke="#000000" stroke-opacity="1" stroke-width="3.2"/>
<circle clip-path="url(#clip142)" cx="2103.12" cy="722.731" r="14.4" fill="#1f77b4" fill-rule="evenodd" fill-opacity="1" stroke="#000000" stroke-opacity="1" stroke-width="3.2"/>
<circle clip-path="url(#clip142)" cx="2166.64" cy="1147.93" r="14.4" fill="#1f77b4" fill-rule="evenodd" fill-opacity="1" stroke="#000000" stroke-opacity="1" stroke-width="3.2"/>
<circle clip-path="url(#clip142)" cx="2230.16" cy="1304.36" r="14.4" fill="#1f77b4" fill-rule="evenodd" fill-opacity="1" stroke="#000000" stroke-opacity="1" stroke-width="3.2"/>
<circle clip-path="url(#clip142)" cx="2293.68" cy="1304.36" r="14.4" fill="#1f77b4" fill-rule="evenodd" fill-opacity="1" stroke="#000000" stroke-opacity="1" stroke-width="3.2"/>
<polyline clip-path="url(#clip142)" style="stroke:#d52628; stroke-linecap:round; stroke-linejoin:round; stroke-width:6; stroke-opacity:1; fill:none" points="324.52,1225.21 388.041,1251.84 451.562,1279.32 515.084,1303.97 578.605,1321.06 642.126,1324.89 705.648,1309.02 769.169,1267.06 832.69,1193.87 896.212,1087.31 959.733,950.415 1023.25,793.165 1086.78,633.077 1150.3,493.529 1213.82,399.555 1277.34,372.048 1340.86,422.243 1404.38,548.237 1467.9,734.089 1531.42,950.786 1594.95,1158.11 1658.47,1307.68 1721.99,1349.92 1785.51,1249.61 1849.03,1011.71 1912.55,703.206 1976.07,440.246 2039.6,329.725 2103.12,410.524 2166.64,644.893 2230.16,949.546 2293.68,1225.91 "/>
<path clip-path="url(#clip140)" d="M335.022 248.629 L643.613 248.629 L643.613 93.1086 L335.022 93.1086  Z" fill="#ffffff" fill-rule="evenodd" fill-opacity="1"/>
<polyline clip-path="url(#clip140)" style="stroke:#000000; stroke-linecap:round; stroke-linejoin:round; stroke-width:4; stroke-opacity:1; fill:none" points="335.022,248.629 643.613,248.629 643.613,93.1086 335.022,93.1086 335.022,248.629 "/>
<circle clip-path="url(#clip140)" cx="427.791" cy="144.949" r="20.48" fill="#1f77b4" fill-rule="evenodd" fill-opacity="1" stroke="#000000" stroke-opacity="1" stroke-width="4.55111"/>
<path clip-path="url(#clip140)" d="M539.472 140.238 L539.472 126.21 L543.732 126.21 L543.732 162.229 L539.472 162.229 L539.472 158.34 Q538.13 160.655 536.07 161.789 Q534.033 162.9 531.162 162.9 Q526.463 162.9 523.5 159.15 Q520.561 155.4 520.561 149.289 Q520.561 143.178 523.5 139.428 Q526.463 135.678 531.162 135.678 Q534.033 135.678 536.07 136.812 Q538.13 137.923 539.472 140.238 M524.959 149.289 Q524.959 153.988 526.88 156.673 Q528.824 159.335 532.204 159.335 Q535.584 159.335 537.528 156.673 Q539.472 153.988 539.472 149.289 Q539.472 144.59 537.528 141.928 Q535.584 139.243 532.204 139.243 Q528.824 139.243 526.88 141.928 Q524.959 144.59 524.959 149.289 Z" fill="#000000" fill-rule="nonzero" fill-opacity="1" /><path clip-path="url(#clip140)" d="M564.287 149.196 Q559.125 149.196 557.134 150.377 Q555.144 151.557 555.144 154.405 Q555.144 156.673 556.625 158.016 Q558.13 159.335 560.699 159.335 Q564.241 159.335 566.37 156.835 Q568.523 154.312 568.523 150.145 L568.523 149.196 L564.287 149.196 M572.782 147.437 L572.782 162.229 L568.523 162.229 L568.523 158.293 Q567.065 160.655 564.889 161.789 Q562.713 162.9 559.565 162.9 Q555.583 162.9 553.222 160.678 Q550.884 158.432 550.884 154.682 Q550.884 150.307 553.801 148.085 Q556.741 145.863 562.551 145.863 L568.523 145.863 L568.523 145.446 Q568.523 142.507 566.579 140.909 Q564.658 139.289 561.162 139.289 Q558.94 139.289 556.833 139.821 Q554.727 140.354 552.783 141.419 L552.783 137.483 Q555.121 136.581 557.32 136.141 Q559.519 135.678 561.602 135.678 Q567.227 135.678 570.005 138.594 Q572.782 141.511 572.782 147.437 Z" fill="#000000" fill-rule="nonzero" fill-opacity="1" /><path clip-path="url(#clip140)" d="M585.769 128.942 L585.769 136.303 L594.542 136.303 L594.542 139.613 L585.769 139.613 L585.769 153.687 Q585.769 156.858 586.625 157.761 Q587.505 158.664 590.167 158.664 L594.542 158.664 L594.542 162.229 L590.167 162.229 Q585.236 162.229 583.361 160.4 Q581.486 158.548 581.486 153.687 L581.486 139.613 L578.361 139.613 L578.361 136.303 L581.486 136.303 L581.486 128.942 L585.769 128.942 Z" fill="#000000" fill-rule="nonzero" fill-opacity="1" /><path clip-path="url(#clip140)" d="M611.926 149.196 Q606.764 149.196 604.773 150.377 Q602.782 151.557 602.782 154.405 Q602.782 156.673 604.264 158.016 Q605.768 159.335 608.338 159.335 Q611.879 159.335 614.009 156.835 Q616.162 154.312 616.162 150.145 L616.162 149.196 L611.926 149.196 M620.421 147.437 L620.421 162.229 L616.162 162.229 L616.162 158.293 Q614.704 160.655 612.528 161.789 Q610.352 162.9 607.204 162.9 Q603.222 162.9 600.861 160.678 Q598.523 158.432 598.523 154.682 Q598.523 150.307 601.44 148.085 Q604.38 145.863 610.19 145.863 L616.162 145.863 L616.162 145.446 Q616.162 142.507 614.217 140.909 Q612.296 139.289 608.801 139.289 Q606.579 139.289 604.472 139.821 Q602.366 140.354 600.421 141.419 L600.421 137.483 Q602.759 136.581 604.958 136.141 Q607.157 135.678 609.241 135.678 Q614.866 135.678 617.643 138.594 Q620.421 141.511 620.421 147.437 Z" fill="#000000" fill-rule="nonzero" fill-opacity="1" /><polyline clip-path="url(#clip140)" style="stroke:#d52628; stroke-linecap:round; stroke-linejoin:round; stroke-width:6; stroke-opacity:1; fill:none" points="358.214,196.789 497.368,196.789 "/>
<path clip-path="url(#clip140)" d="M537.065 178.05 L537.065 181.592 L532.991 181.592 Q530.699 181.592 529.797 182.518 Q528.917 183.444 528.917 185.851 L528.917 188.143 L535.931 188.143 L535.931 191.453 L528.917 191.453 L528.917 214.069 L524.635 214.069 L524.635 191.453 L520.561 191.453 L520.561 188.143 L524.635 188.143 L524.635 186.337 Q524.635 182.009 526.648 180.041 Q528.662 178.05 533.037 178.05 L537.065 178.05 Z" fill="#000000" fill-rule="nonzero" fill-opacity="1" /><path clip-path="url(#clip140)" d="M540.63 188.143 L544.889 188.143 L544.889 214.069 L540.63 214.069 L540.63 188.143 M540.63 178.05 L544.889 178.05 L544.889 183.444 L540.63 183.444 L540.63 178.05 Z" fill="#000000" fill-rule="nonzero" fill-opacity="1" /><path clip-path="url(#clip140)" d="M558.014 180.782 L558.014 188.143 L566.787 188.143 L566.787 191.453 L558.014 191.453 L558.014 205.527 Q558.014 208.698 558.871 209.601 Q559.75 210.504 562.412 210.504 L566.787 210.504 L566.787 214.069 L562.412 214.069 Q557.482 214.069 555.607 212.24 Q553.732 210.388 553.732 205.527 L553.732 191.453 L550.607 191.453 L550.607 188.143 L553.732 188.143 L553.732 180.782 L558.014 180.782 Z" fill="#000000" fill-rule="nonzero" fill-opacity="1" /></svg>
